<?xml version="1.0" encoding="utf-8"?>
<!-- Generator: Adobe Illustrator 16.0.0, SVG Export Plug-In . SVG Version: 6.00 Build 0)  -->
<!DOCTYPE svg PUBLIC "-//W3C//DTD SVG 1.1//EN" "http://www.w3.org/Graphics/SVG/1.1/DTD/svg11.dtd">
<svg version="1.1" id="Layer_1" xmlns="http://www.w3.org/2000/svg" xmlns:xlink="http://www.w3.org/1999/xlink" x="0px" y="0px"
	 width="46.24px" height="25.5px" viewBox="0 0 46.24 25.5" enable-background="new 0 0 46.24 25.5" xml:space="preserve">
<g>
	<path d="M37.197,9.026c-0.912,0-1.792,0.126-2.623,0.356L33.1,5.66h11.253c0.414,0,0.75-0.336,0.75-0.75
		s-0.336-0.75-0.75-0.75h-7.836L36.17,3.414h6.572c0.414,0,0.75-0.336,0.75-0.75s-0.336-0.75-0.75-0.75H31.615L30.857,0h-4.038
		c-0.414,0-0.75,0.336-0.75,0.75s0.336,0.75,0.75,0.75h3.019l1.054,2.66h-15.8c1.644-0.301,2.826-1.363,2.826-2.661
		c0-0.414-0.336-0.75-0.75-0.75h-6.079c-0.414,0-0.75,0.336-0.75,0.75c0,1.541,1.665,2.747,3.79,2.747
		c0.133,0,0.265-0.005,0.394-0.014c-0.05,0.024-0.099,0.054-0.145,0.09c-0.021,0.017-0.041,0.034-0.061,0.053
		c-0.062,0.061-0.111,0.13-0.147,0.205l-2.49,4.805c-0.834-0.232-1.718-0.359-2.635-0.359C4.058,9.026,0,12.722,0,17.264
		C0,21.805,4.058,25.5,9.045,25.5c4.986,0,9.043-3.695,9.043-8.236c0-0.014-0.002-0.026-0.002-0.04h6.684
		c0.266,0,0.512-0.141,0.646-0.37l6.275-10.676l1.475,3.723c-2.966,1.353-5.012,4.141-5.012,7.363c0,4.542,4.057,8.236,9.043,8.236
		s9.043-3.695,9.043-8.236C46.24,12.722,42.184,9.026,37.197,9.026z M14.129,2.746c-0.738,0-1.372-0.209-1.784-0.497h3.567
		C15.501,2.537,14.867,2.746,14.129,2.746z M16.588,17.264c0,3.714-3.384,6.736-7.543,6.736C4.885,24,1.5,20.978,1.5,17.264
		c0-3.715,3.385-6.737,7.545-6.737c0.666,0,1.309,0.085,1.925,0.23l-2.783,5.372c-0.12,0.233-0.111,0.511,0.025,0.735
		c0.136,0.224,0.379,0.36,0.641,0.36h7.733C16.586,17.237,16.588,17.25,16.588,17.264z M12.408,11.242
		c1.976,0.884,3.456,2.517,3.973,4.482h-6.295L12.408,11.242z M17.924,15.724c-0.532-2.548-2.355-4.679-4.826-5.813l1.903-3.674
		l8.234,9.487H17.924z M24.696,15.118L16.487,5.66h13.769L24.696,15.118z M32.21,3.414h2.307l0.347,0.746h-2.357L32.21,3.414z
		 M37.197,24c-4.159,0-7.543-3.022-7.543-6.736c0-2.594,1.652-4.846,4.062-5.971l2.166,5.466c0.116,0.294,0.398,0.474,0.697,0.474
		c0.092,0,0.186-0.017,0.276-0.053c0.385-0.152,0.573-0.588,0.421-0.974l-2.146-5.417c0.657-0.168,1.349-0.263,2.065-0.263
		c4.159,0,7.543,3.022,7.543,6.737C44.74,20.978,41.356,24,37.197,24z"/>
	<path d="M25.843,18.386h-3.935c-0.414,0-0.75,0.336-0.75,0.75s0.336,0.75,0.75,0.75h3.935
		c0.414,0,0.75-0.336,0.75-0.75S26.257,18.386,25.843,18.386z"/>
	<path d="M1.699,5.66h4.015c0.414,0,0.75-0.336,0.75-0.75s-0.336-0.75-0.75-0.75H1.699
		c-0.414,0-0.75,0.336-0.75,0.75S1.285,5.66,1.699,5.66z"/>
	<path d="M1.699,7.574h9.133c0.414,0,0.75-0.336,0.75-0.75s-0.336-0.75-0.75-0.75H1.699
		c-0.414,0-0.75,0.336-0.75,0.75S1.285,7.574,1.699,7.574z"/>
</g>
</svg>
