<?xml version="1.0" encoding="utf-8"?>
<!-- Generator: Adobe Illustrator 16.0.0, SVG Export Plug-In . SVG Version: 6.00 Build 0)  -->
<!DOCTYPE svg PUBLIC "-//W3C//DTD SVG 1.1//EN" "http://www.w3.org/Graphics/SVG/1.1/DTD/svg11.dtd">
<svg version="1.1" id="Layer_1" xmlns="http://www.w3.org/2000/svg" xmlns:xlink="http://www.w3.org/1999/xlink" x="0px" y="0px"
	 width="48.141px" height="20px" viewBox="0 0 48.141 20" enable-background="new 0 0 48.141 20" xml:space="preserve">
<path d="M30.433,7.607l-0.6,1.536h-4.967V7.599L30.433,7.607z M35.841,9.144h-4.167l0.599-1.533l4.215,0.007
	L35.841,9.144z M31.973,18.286h-3.87l1.303-3.334h3.978L31.973,18.286z M14.499,14.952h3.979l1.303,3.334h-3.871L14.499,14.952z
	 M15.609,7.61l0.599,1.533h-4.166l-0.646-1.526L15.609,7.61z M18.049,9.144L17.45,7.607l5.7-0.009v1.545H18.049z M12.767,10.857
	h4.111l0.931,2.381h-4.034L12.767,10.857z M23.15,13.238h-3.502l-0.93-2.381h4.432V13.238z M24.866,14.952h2.697l-1.302,3.334
	h-1.396V14.952z M23.15,18.286h-1.53l-1.302-3.334h2.832V18.286z M31.005,10.857h4.111l-1.008,2.381h-4.035L31.005,10.857z
	 M28.233,13.238h-3.367v-2.381h4.297L28.233,13.238z M47.227,4.322l-6.121-3.561c-0.534-0.312-1.151-0.329-1.649-0.104
	C38.43,0.256,37.474,0,36.704,0c-1.496,0-2.881,0.472-4.485,1.018c-2.142,0.729-4.569,1.554-8.086,1.554h-0.124
	c-3.518,0-5.945-0.825-8.086-1.554C14.317,0.472,12.932,0,11.437,0c-0.77,0-1.725,0.256-2.752,0.658
	C8.188,0.433,7.569,0.45,7.034,0.762L0.913,4.322c-0.845,0.492-1.16,1.525-0.705,2.309C0.665,7.415,1.719,7.651,2.564,7.16
	L8.685,3.6c0.561-0.326,0.887-0.892,0.911-1.464c0.713-0.263,1.348-0.422,1.841-0.422c1.212,0,2.473,0.43,3.934,0.927
	c1.988,0.676,4.429,1.504,7.78,1.628v1.615L10.103,5.904C9.815,5.905,9.548,6.049,9.389,6.289C9.23,6.528,9.202,6.831,9.314,7.095
	l5.238,12.383C14.687,19.794,14.997,20,15.342,20h8.342h0.515h8.342c0.345,0,0.656-0.206,0.789-0.522l5.238-12.383
	c0.112-0.264,0.084-0.566-0.074-0.806c-0.158-0.24-0.426-0.384-0.713-0.385L24.866,5.884v-1.61c3.416-0.107,5.891-0.948,7.904-1.633
	c1.46-0.497,2.723-0.927,3.934-0.927c0.494,0,1.129,0.159,1.84,0.422c0.025,0.572,0.351,1.138,0.912,1.464l6.121,3.561
	c0.844,0.491,1.898,0.255,2.354-0.529C48.388,5.848,48.071,4.814,47.227,4.322"/>
</svg>
