<?xml version="1.0" encoding="utf-8"?>
<!-- Generator: Adobe Illustrator 16.0.0, SVG Export Plug-In . SVG Version: 6.00 Build 0)  -->
<!DOCTYPE svg PUBLIC "-//W3C//DTD SVG 1.1//EN" "http://www.w3.org/Graphics/SVG/1.1/DTD/svg11.dtd">
<svg version="1.1" id="Layer_1" xmlns="http://www.w3.org/2000/svg" xmlns:xlink="http://www.w3.org/1999/xlink" x="0px" y="0px"
	 width="140.046px" height="140px" viewBox="0 0 140.046 140" enable-background="new 0 0 140.046 140" xml:space="preserve">
<path fill="#231F20" d="M106.251,118.437c-26.749,20.008-64.655,14.543-84.664-12.207C1.578,79.479,7.044,41.571,33.794,21.563
	s64.655-14.542,84.665,12.208C138.467,60.522,133.002,98.428,106.251,118.437 M139.68,70.846c-2.376-0.332-3.574-1.539-3.693-2.669
	h0.002c-0.049-2.632,2.465-2.966,3.461-3.119c0.582-0.119,0.412-2.43-0.153-2.467c-2.397-0.047-3.731-1.104-3.983-2.212h0.002
	c-0.359-2.608,2.098-3.238,3.068-3.509c0.562-0.186,0.121-2.461-0.445-2.43c-2.387,0.236-3.836-0.655-4.218-1.725l0.003-0.001
	c-0.667-2.547,1.699-3.463,2.631-3.847c0.537-0.252-0.171-2.459-0.729-2.36c-2.344,0.517-3.887-0.196-4.393-1.213l0.002-0.002
	c-0.963-2.45,1.277-3.641,2.157-4.131c0.503-0.313-0.461-2.421-1.004-2.258c-2.265,0.791-3.882,0.266-4.506-0.685l0.003-0.002
	c-1.247-2.318,0.837-3.766,1.652-4.356c0.464-0.371-0.743-2.349-1.264-2.124c-2.154,1.054-3.824,0.725-4.555-0.146l0.002-0.002
	c-1.512-2.155,0.387-3.838,1.126-4.521c0.415-0.424-1.017-2.245-1.507-1.959c-2.016,1.301-3.711,1.171-4.54,0.395l0.002-0.003
	c-1.757-1.961-0.071-3.856,0.582-4.622c0.362-0.471-1.276-2.109-1.728-1.768c-1.848,1.531-3.547,1.603-4.463,0.929l0.002-0.003
	c-1.976-1.738-0.526-3.82,0.031-4.658c0.305-0.511-1.516-1.943-1.925-1.551c-1.651,1.739-3.332,2.012-4.319,1.451l0.002-0.003
	c-2.17-1.493-0.978-3.731-0.522-4.63c0.241-0.542-1.736-1.75-2.095-1.311c-1.436,1.922-3.07,2.391-4.118,1.951l0.002-0.004
	c-2.331-1.224-1.412-3.589-1.066-4.535c0.175-0.566-1.931-1.531-2.235-1.054c-1.197,2.079-2.766,2.738-3.858,2.426l0.001-0.003
	c-2.459-0.94-1.826-3.397-1.596-4.378c0.107-0.583-2.098-1.292-2.344-0.78c-0.942,2.204-2.422,3.045-3.543,2.864V5.82
	c-2.554-0.643-2.217-3.158-2.103-4.158c0.037-0.592-2.237-1.034-2.421-0.498c-0.676,2.302-2.044,3.312-3.18,3.265V4.426
	c-2.61-0.336-2.573-2.873-2.58-3.88c-0.032-0.593-2.344-0.763-2.463-0.208c-0.396,2.364-1.637,3.529-2.77,3.617l-0.001-0.003
	c-2.632-0.024-2.896-2.548-3.021-3.547c-0.104-0.584-2.418-0.479-2.471,0.085c-0.115,2.396-1.208,3.698-2.322,3.921V4.407
	c-2.617,0.288-3.179-2.186-3.42-3.164c-0.172-0.567-2.457-0.189-2.442,0.377c0.169,2.393-0.763,3.815-1.843,4.168V5.785
	c-2.565,0.596-3.416-1.795-3.771-2.736c-0.236-0.544-2.462,0.102-2.381,0.663c0.452,2.355-0.305,3.879-1.335,4.356l-0.002-0.003
	c-2.476,0.896-3.603-1.378-4.068-2.271c-0.3-0.514-2.433,0.392-2.284,0.939c0.727,2.286,0.156,3.888-0.811,4.484l-0.002-0.003
	c-2.354,1.182-3.741-0.941-4.309-1.773c-0.358-0.473-2.369,0.678-2.158,1.204c0.994,2.184,0.617,3.842-0.273,4.549l-0.002-0.003
	c-2.195,1.452-3.826-0.492-4.488-1.251c-0.412-0.427-2.271,0.954-2,1.452c1.244,2.051,1.066,3.742,0.268,4.549l-0.004-0.002
	c-2.008,1.701-3.856-0.036-4.604-0.711c-0.459-0.376-2.144,1.216-1.813,1.678c1.479,1.89,1.502,3.589,0.804,4.486l-0.003-0.003
	c-1.793,1.928-3.834,0.421-4.656-0.16c-0.501-0.319-1.984,1.462-1.604,1.881c1.692,1.7,1.916,3.386,1.33,4.359l-0.004-0.002
	c-1.552,2.126-3.756,0.872-4.643,0.392c-0.534-0.257-1.796,1.687-1.368,2.058c1.882,1.488,2.304,3.136,1.837,4.172l-0.005-0.002
	c-1.289,2.295-3.627,1.311-4.563,0.938c-0.561-0.191-1.584,1.887-1.115,2.205c2.045,1.255,2.66,2.841,2.316,3.924l-0.002-0.001
	c-1.01,2.433-3.447,1.731-4.422,1.474c-0.58-0.124-1.349,2.061-0.846,2.32c2.18,1.004,2.977,2.506,2.766,3.623L6.354,52.57
	c-0.714,2.534-3.218,2.127-4.215,1.986c-0.591-0.055-1.096,2.207-0.566,2.405c2.283,0.738,3.254,2.136,3.176,3.27L4.744,60.23
	c-0.408,2.601-2.943,2.493-3.95,2.471c-0.593,0.017-0.827,2.321-0.277,2.456C2.871,65.62,4,66.893,4.057,68.028H4.053
	c-0.098,2.631-2.627,2.823-3.629,2.921c-0.587,0.086-0.547,2.402,0.016,2.472c2.391,0.181,3.664,1.311,3.854,2.431L4.29,75.853
	c0.215,2.624-2.274,3.114-3.259,3.33c-0.572,0.155-0.258,2.451,0.309,2.452c2.396-0.104,3.794,0.868,4.115,1.958l-0.004,0.001
	c0.524,2.58-1.889,3.36-2.84,3.691c-0.551,0.223,0.033,2.464,0.596,2.399c2.367-0.387,3.869,0.412,4.318,1.456l-0.004,0.002
	c0.825,2.499-1.478,3.561-2.384,4.002c-0.521,0.285,0.325,2.443,0.876,2.311c2.307-0.664,3.893-0.048,4.461,0.936l-0.003,0.002
	c1.115,2.385-1.047,3.712-1.894,4.257c-0.482,0.345,0.611,2.388,1.144,2.191c2.211-0.933,3.858-0.51,4.54,0.4l-0.003,0.002
	c1.39,2.236-0.601,3.81-1.376,4.451c-0.439,0.399,0.891,2.298,1.395,2.04c2.086-1.187,3.771-0.962,4.556-0.14l-0.003,0.003
	c1.645,2.055-0.145,3.853-0.84,4.583c-0.387,0.448,1.156,2.176,1.627,1.859c1.93-1.426,3.631-1.401,4.508-0.678l-0.004,0.003
	c1.878,1.847,0.313,3.844-0.291,4.65c-0.331,0.491,1.406,2.023,1.837,1.654c1.747-1.645,3.438-1.821,4.396-1.206l-0.003,0.002
	c2.081,1.61,0.767,3.779,0.261,4.651c-0.271,0.527,1.637,1.844,2.02,1.427c1.54-1.841,3.199-2.218,4.221-1.72l-0.001,0.003
	c2.257,1.354,1.207,3.662,0.81,4.588c-0.207,0.557,1.843,1.638,2.174,1.178c1.312-2.009,2.914-2.58,3.988-2.206l-0.002,0.003
	c2.402,1.076,1.633,3.493,1.349,4.46c-0.14,0.576,2.022,1.407,2.297,0.911c1.063-2.15,2.588-2.907,3.698-2.663v0.003
	c2.512,0.784,2.035,3.275,1.865,4.269c-0.069,0.588,2.176,1.158,2.39,0.634c0.803-2.262,2.228-3.193,3.356-3.083v0.004
	c2.588,0.48,2.409,3.011,2.359,4.018c0,0.592,2.297,0.893,2.447,0.345c0.529-2.34,1.833-3.434,2.969-3.458v0.003
	c2.626,0.173,2.748,2.705,2.818,3.712c0.07,0.588,2.387,0.612,2.471,0.053c0.248-2.386,1.413-3.627,2.538-3.785l0.001,0.003
	c2.628-0.141,3.049,2.36,3.236,3.351c0.141,0.575,2.442,0.326,2.461-0.239c-0.036-2.399,0.974-3.77,2.072-4.06v0.002
	c2.594-0.449,3.308,1.983,3.612,2.945c0.206,0.555,2.463,0.035,2.413-0.529c-0.318-2.379,0.521-3.857,1.578-4.275l0.001,0.002
	c2.521-0.754,3.519,1.577,3.935,2.496c0.271,0.525,2.45-0.257,2.334-0.812c-0.599-2.324,0.061-3.893,1.061-4.433l0.001,0.002
	c2.413-1.047,3.681,1.149,4.202,2.013c0.332,0.491,2.402-0.545,2.222-1.082c-0.87-2.237-0.401-3.873,0.528-4.526v0.002
	c2.274-1.326,3.793,0.706,4.412,1.501c0.388,0.447,2.322-0.825,2.078-1.337c-1.129-2.119-0.856-3.8-0.012-4.559l0.001,0.002
	c2.101-1.586,3.849,0.252,4.558,0.968c0.438,0.399,2.209-1.094,1.906-1.573c-1.371-1.971-1.301-3.67-0.552-4.525l0.002,0.002
	c1.897-1.823,3.851-0.205,4.64,0.422c0.482,0.344,2.062-1.348,1.707-1.789c-1.522-1.711-1.711-3.333-1.168-4.293
	c1.646-1.689,3.635-0.389,4.455,0.124c0.518,0.29,1.9-1.569,1.496-1.967c-1.785-1.604-2.104-3.274-1.57-4.279l0.002,0.002
	c1.432-2.209,3.703-1.08,4.615-0.649c0.547,0.226,1.699-1.785,1.252-2.131c-1.963-1.382-2.478-3.002-2.067-4.062l0.003,0.001
	c1.16-2.363,3.549-1.511,4.504-1.191c0.572,0.159,1.479-1.974,0.99-2.265c-2.11-1.139-2.813-2.688-2.531-3.789l0.003,0.001
	c0.871-2.483,3.345-1.921,4.331-1.717c0.586,0.091,1.234-2.134,0.716-2.365c-2.231-0.881-3.112-2.336-2.963-3.462h0.003
	c0.571-2.569,3.094-2.303,4.098-2.218c0.592,0.021,0.972-2.265,0.431-2.433c-2.32-0.611-3.367-1.951-3.353-3.089l0.004,0.002
	c0.262-2.62,2.799-2.654,3.805-2.688C140.132,73.264,140.236,70.948,139.68,70.846"/>
</svg>
