<?xml version="1.0" encoding="utf-8"?>
<!-- Generator: Adobe Illustrator 16.0.0, SVG Export Plug-In . SVG Version: 6.00 Build 0)  -->
<!DOCTYPE svg PUBLIC "-//W3C//DTD SVG 1.1//EN" "http://www.w3.org/Graphics/SVG/1.1/DTD/svg11.dtd">
<svg version="1.1" id="Layer_1" xmlns="http://www.w3.org/2000/svg" xmlns:xlink="http://www.w3.org/1999/xlink" x="0px" y="0px"
	 width="11.56px" height="24.5px" viewBox="0 0 11.56 24.5" enable-background="new 0 0 11.56 24.5" xml:space="preserve">
<g>
	<path  d="M7.384,24.5H2.888c-0.414,0-0.75-0.336-0.75-0.75V13.009H0.75c-0.414,0-0.75-0.336-0.75-0.75V8.198
		c0-0.414,0.336-0.75,0.75-0.75h1.388V5.57C2.138,3,3.522,0,7.425,0l3.332,0.014c0.413,0.001,0.747,0.337,0.747,0.75v3.941
		c0,0.414-0.336,0.75-0.75,0.75H8.336c-0.104,0-0.202,0-0.202,0.355v1.638h2.676c0.212,0,0.413,0.089,0.556,0.246
		c0.142,0.157,0.211,0.366,0.19,0.577l-0.393,4.061c-0.037,0.384-0.359,0.678-0.746,0.678H8.134V23.75
		C8.134,24.164,7.798,24.5,7.384,24.5z M3.638,23h2.996V12.259c0-0.414,0.336-0.75,0.75-0.75h2.353l0.247-2.561h-2.6
		c-0.414,0-0.75-0.336-0.75-0.75V5.811c0-1.282,0.854-1.855,1.702-1.855h1.668V1.511L7.422,1.5c-3.415,0-3.784,2.847-3.784,4.07
		v2.628c0,0.414-0.336,0.75-0.75,0.75H1.5v2.561h1.388c0.414,0,0.75,0.336,0.75,0.75V23z"/>
</g>
</svg>
