<?xml version="1.0" encoding="utf-8"?>
<!-- Generator: Adobe Illustrator 16.0.0, SVG Export Plug-In . SVG Version: 6.00 Build 0)  -->
<!DOCTYPE svg PUBLIC "-//W3C//DTD SVG 1.1//EN" "http://www.w3.org/Graphics/SVG/1.1/DTD/svg11.dtd">
<svg version="1.1" id="Layer_1" xmlns="http://www.w3.org/2000/svg" xmlns:xlink="http://www.w3.org/1999/xlink" x="0px" y="0px"
	 width="24.5px" height="24.5px" viewBox="0 0 24.5 24.5" enable-background="new 0 0 24.5 24.5" xml:space="preserve">
<g>
	<path d="M21.75,0h-19C1.645,0,0,0.732,0,2.75v19c0,1.105,0.732,2.75,2.75,2.75h19c1.105,0,2.75-0.732,2.75-2.75v-19
		C24.5,1.645,23.768,0,21.75,0z M2.75,1.5h19c1.139,0,1.245,0.962,1.25,1.25v7.397h-5.817c-0.381-2.389-2.438-4.226-4.933-4.226
		s-4.552,1.836-4.933,4.226H1.5V2.75C1.5,1.611,2.462,1.505,2.75,1.5z M15.763,10.935c0,1.937-1.576,3.513-3.513,3.513
		s-3.513-1.576-3.513-3.513s1.576-3.513,3.513-3.513S15.763,8.998,15.763,10.935z M21.746,23H2.75c-1.139,0-1.245-0.962-1.25-1.25
		V11.647h5.81c0.35,2.425,2.421,4.3,4.94,4.3s4.591-1.875,4.94-4.3H23V21.75C23,22.886,22.043,22.994,21.746,23z"/>
	<path d="M18.75,5.235h1c0.414,0,0.75-0.336,0.75-0.75s-0.336-0.75-0.75-0.75h-1c-0.414,0-0.75,0.336-0.75,0.75
		S18.336,5.235,18.75,5.235z"/>
</g>
</svg>
