<?xml version="1.0" encoding="utf-8"?>
<!-- Generator: Adobe Illustrator 16.0.0, SVG Export Plug-In . SVG Version: 6.00 Build 0)  -->
<!DOCTYPE svg PUBLIC "-//W3C//DTD SVG 1.1//EN" "http://www.w3.org/Graphics/SVG/1.1/DTD/svg11.dtd">
<svg version="1.1" id="Layer_1" xmlns="http://www.w3.org/2000/svg" xmlns:xlink="http://www.w3.org/1999/xlink" x="0px" y="0px"
	 width="140.046px" height="140px" viewBox="0 0 140.046 140" enable-background="new 0 0 140.046 140" xml:space="preserve">
<path fill="#FFFFFF" d="M69.773,132.5c34.379,0,62.25-27.87,62.25-62.25S104.152,8,69.773,8C35.393,8,7.523,35.87,7.523,70.25
	S35.393,132.5,69.773,132.5"/>
<path fill="#231F20" d="M106.251,118.437c-26.749,20.008-64.655,14.543-84.664-12.207C1.578,79.479,7.044,41.571,33.794,21.563
	s64.655-14.542,84.665,12.208C138.467,60.522,133.002,98.428,106.251,118.437 M139.68,70.846c-2.376-0.332-3.574-1.539-3.693-2.669
	h0.002c-0.049-2.632,2.465-2.966,3.461-3.119c0.582-0.119,0.412-2.43-0.153-2.467c-2.397-0.047-3.731-1.104-3.983-2.212h0.002
	c-0.359-2.608,2.098-3.238,3.068-3.509c0.562-0.186,0.121-2.461-0.445-2.43c-2.387,0.236-3.836-0.655-4.218-1.725l0.003-0.001
	c-0.667-2.547,1.699-3.463,2.631-3.847c0.537-0.252-0.171-2.459-0.729-2.36c-2.344,0.517-3.887-0.196-4.393-1.213l0.002-0.002
	c-0.963-2.45,1.277-3.641,2.157-4.131c0.503-0.313-0.461-2.421-1.004-2.258c-2.265,0.791-3.882,0.266-4.506-0.685l0.003-0.002
	c-1.247-2.318,0.837-3.766,1.652-4.356c0.464-0.371-0.743-2.349-1.264-2.124c-2.154,1.054-3.824,0.725-4.555-0.146l0.002-0.002
	c-1.512-2.155,0.387-3.838,1.126-4.521c0.415-0.424-1.017-2.245-1.507-1.959c-2.016,1.301-3.711,1.171-4.54,0.395l0.002-0.003
	c-1.757-1.961-0.071-3.856,0.582-4.622c0.362-0.471-1.276-2.109-1.728-1.768c-1.848,1.531-3.547,1.603-4.463,0.929l0.002-0.003
	c-1.976-1.738-0.526-3.82,0.031-4.658c0.305-0.511-1.516-1.943-1.925-1.551c-1.651,1.739-3.332,2.012-4.319,1.451l0.002-0.003
	c-2.17-1.493-0.978-3.731-0.522-4.63c0.241-0.542-1.736-1.75-2.095-1.311c-1.436,1.922-3.07,2.391-4.118,1.951l0.002-0.004
	c-2.331-1.224-1.412-3.589-1.066-4.535c0.175-0.566-1.931-1.531-2.235-1.054c-1.197,2.079-2.766,2.738-3.858,2.426l0.001-0.003
	c-2.459-0.94-1.826-3.397-1.596-4.378c0.107-0.583-2.098-1.292-2.344-0.78c-0.942,2.204-2.422,3.045-3.543,2.864V5.82
	c-2.554-0.643-2.217-3.158-2.103-4.158c0.037-0.592-2.237-1.034-2.421-0.498c-0.676,2.302-2.044,3.312-3.18,3.265V4.426
	c-2.61-0.336-2.573-2.873-2.58-3.88c-0.032-0.593-2.344-0.763-2.463-0.208c-0.396,2.364-1.637,3.529-2.77,3.617l-0.001-0.003
	c-2.632-0.024-2.896-2.548-3.021-3.547c-0.104-0.584-2.418-0.479-2.471,0.085c-0.115,2.396-1.208,3.698-2.322,3.921V4.407
	c-2.617,0.288-3.179-2.186-3.42-3.164c-0.172-0.567-2.457-0.189-2.442,0.377c0.169,2.393-0.763,3.815-1.843,4.168V5.785
	c-2.565,0.596-3.416-1.795-3.771-2.736c-0.236-0.544-2.462,0.102-2.381,0.663c0.452,2.355-0.305,3.879-1.335,4.356l-0.002-0.003
	c-2.476,0.896-3.603-1.378-4.068-2.271c-0.3-0.514-2.433,0.392-2.284,0.939c0.727,2.286,0.156,3.888-0.811,4.484l-0.002-0.003
	c-2.354,1.182-3.741-0.941-4.309-1.773c-0.358-0.473-2.369,0.678-2.158,1.204c0.994,2.184,0.617,3.842-0.273,4.549l-0.002-0.003
	c-2.195,1.452-3.826-0.492-4.488-1.251c-0.412-0.427-2.271,0.954-2,1.452c1.244,2.051,1.066,3.742,0.268,4.549l-0.004-0.002
	c-2.008,1.701-3.856-0.036-4.604-0.711c-0.459-0.376-2.144,1.216-1.813,1.678c1.479,1.89,1.502,3.589,0.804,4.486l-0.003-0.003
	c-1.793,1.928-3.834,0.421-4.656-0.16c-0.501-0.319-1.984,1.462-1.604,1.881c1.692,1.7,1.916,3.386,1.33,4.359l-0.004-0.002
	c-1.552,2.126-3.756,0.872-4.643,0.392c-0.534-0.257-1.796,1.687-1.368,2.058c1.882,1.488,2.304,3.136,1.837,4.172l-0.005-0.002
	c-1.289,2.295-3.627,1.311-4.563,0.938c-0.561-0.191-1.584,1.887-1.115,2.205c2.045,1.255,2.66,2.841,2.316,3.924l-0.002-0.001
	c-1.01,2.433-3.447,1.731-4.422,1.474c-0.58-0.124-1.349,2.061-0.846,2.32c2.18,1.004,2.977,2.506,2.766,3.623L6.354,52.57
	c-0.714,2.534-3.218,2.127-4.215,1.986c-0.591-0.055-1.096,2.207-0.566,2.405c2.283,0.738,3.254,2.136,3.176,3.27L4.744,60.23
	c-0.408,2.601-2.943,2.493-3.95,2.471c-0.593,0.017-0.827,2.321-0.277,2.456C2.871,65.62,4,66.893,4.057,68.028H4.053
	c-0.098,2.631-2.627,2.823-3.629,2.921c-0.587,0.086-0.547,2.402,0.016,2.472c2.391,0.181,3.664,1.311,3.854,2.431L4.29,75.853
	c0.215,2.624-2.274,3.114-3.259,3.33c-0.572,0.155-0.258,2.451,0.309,2.452c2.396-0.104,3.794,0.868,4.115,1.958l-0.004,0.001
	c0.524,2.58-1.889,3.36-2.84,3.691c-0.551,0.223,0.033,2.464,0.596,2.399c2.367-0.387,3.869,0.412,4.318,1.456l-0.004,0.002
	c0.825,2.499-1.478,3.561-2.384,4.002c-0.521,0.285,0.325,2.443,0.876,2.311c2.307-0.664,3.893-0.048,4.461,0.936l-0.003,0.002
	c1.115,2.385-1.047,3.712-1.894,4.257c-0.482,0.345,0.611,2.388,1.144,2.191c2.211-0.933,3.858-0.51,4.54,0.4l-0.003,0.002
	c1.39,2.236-0.601,3.81-1.376,4.451c-0.439,0.399,0.891,2.298,1.395,2.04c2.086-1.187,3.771-0.962,4.556-0.14l-0.003,0.003
	c1.645,2.055-0.145,3.853-0.84,4.583c-0.387,0.448,1.156,2.176,1.627,1.859c1.93-1.426,3.631-1.401,4.508-0.678l-0.004,0.003
	c1.878,1.847,0.313,3.844-0.291,4.65c-0.331,0.491,1.406,2.023,1.837,1.654c1.747-1.645,3.438-1.821,4.396-1.206l-0.003,0.002
	c2.081,1.61,0.767,3.779,0.261,4.651c-0.271,0.527,1.637,1.844,2.02,1.427c1.54-1.841,3.199-2.218,4.221-1.72l-0.001,0.003
	c2.257,1.354,1.207,3.662,0.81,4.588c-0.207,0.557,1.843,1.638,2.174,1.178c1.312-2.009,2.914-2.58,3.988-2.206l-0.002,0.003
	c2.402,1.076,1.633,3.493,1.349,4.46c-0.14,0.576,2.022,1.407,2.297,0.911c1.063-2.15,2.588-2.907,3.698-2.663v0.003
	c2.512,0.784,2.035,3.275,1.865,4.269c-0.069,0.588,2.176,1.158,2.39,0.634c0.803-2.262,2.228-3.193,3.356-3.083v0.004
	c2.588,0.48,2.409,3.011,2.359,4.018c0,0.592,2.297,0.893,2.447,0.345c0.529-2.34,1.833-3.434,2.969-3.458v0.003
	c2.626,0.173,2.748,2.705,2.818,3.712c0.07,0.588,2.387,0.612,2.471,0.053c0.248-2.386,1.413-3.627,2.538-3.785l0.001,0.003
	c2.628-0.141,3.049,2.36,3.236,3.351c0.141,0.575,2.442,0.326,2.461-0.239c-0.036-2.399,0.974-3.77,2.072-4.06v0.002
	c2.594-0.449,3.308,1.983,3.612,2.945c0.206,0.555,2.463,0.035,2.413-0.529c-0.318-2.379,0.521-3.857,1.578-4.275l0.001,0.002
	c2.521-0.754,3.519,1.577,3.935,2.496c0.271,0.525,2.45-0.257,2.334-0.812c-0.599-2.324,0.061-3.893,1.061-4.433l0.001,0.002
	c2.413-1.047,3.681,1.149,4.202,2.013c0.332,0.491,2.402-0.545,2.222-1.082c-0.87-2.237-0.401-3.873,0.528-4.526v0.002
	c2.274-1.326,3.793,0.706,4.412,1.501c0.388,0.447,2.322-0.825,2.078-1.337c-1.129-2.119-0.856-3.8-0.012-4.559l0.001,0.002
	c2.101-1.586,3.849,0.252,4.558,0.968c0.438,0.399,2.209-1.094,1.906-1.573c-1.371-1.971-1.301-3.67-0.552-4.525l0.002,0.002
	c1.897-1.823,3.851-0.205,4.64,0.422c0.482,0.344,2.062-1.348,1.707-1.789c-1.522-1.711-1.711-3.333-1.168-4.293
	c1.646-1.689,3.635-0.389,4.455,0.124c0.518,0.29,1.9-1.569,1.496-1.967c-1.785-1.604-2.104-3.274-1.57-4.279l0.002,0.002
	c1.432-2.209,3.703-1.08,4.615-0.649c0.547,0.226,1.699-1.785,1.252-2.131c-1.963-1.382-2.478-3.002-2.067-4.062l0.003,0.001
	c1.16-2.363,3.549-1.511,4.504-1.191c0.572,0.159,1.479-1.974,0.99-2.265c-2.11-1.139-2.813-2.688-2.531-3.789l0.003,0.001
	c0.871-2.483,3.345-1.921,4.331-1.717c0.586,0.091,1.234-2.134,0.716-2.365c-2.231-0.881-3.112-2.336-2.963-3.462h0.003
	c0.571-2.569,3.094-2.303,4.098-2.218c0.592,0.021,0.972-2.265,0.431-2.433c-2.32-0.611-3.367-1.951-3.353-3.089l0.004,0.002
	c0.262-2.62,2.799-2.654,3.805-2.688C140.132,73.264,140.236,70.948,139.68,70.846"/>
<path fill="#231F20" d="M66.152,56.111v-0.038c0-2.325-1.705-4.263-4.107-4.263c-2.401,0-4.067,1.898-4.067,4.223v0.04
	c0,2.323,1.704,4.261,4.106,4.261S66.152,58.436,66.152,56.111 M54.859,56.111v-0.038c0-3.856,3.041-7.014,7.225-7.014
	c4.185,0,7.187,3.119,7.187,6.974v0.04c0,3.854-3.041,7.012-7.226,7.012C57.861,63.085,54.859,59.966,54.859,56.111"/>
<path fill="#231F20" d="M84.697,50.805c0.028-0.428,0.133-1.041,0.49-1.512h-3.955c0.465,0.612,0.502,1.469,0.502,1.841v6.483
	l-6.336-8.324h-1.934h-0.001h-1.322c0.466,0.613,0.501,1.469,0.501,1.841v9.894c0,0.372-0.035,1.228-0.501,1.841h3.955
	c-0.466-0.613-0.502-1.469-0.502-1.841v-6.793l6.563,8.618h1.682c0.016,0.01,0.025,0.016,0.025,0.016h1.322
	c-0.357-0.472-0.462-1.084-0.49-1.512V50.805z"/>
<path fill="#231F20" d="M54.554,31.268c0-0.371-0.036-1.227-0.502-1.841h3.955c-0.465,0.614-0.502,1.47-0.502,1.841v9.895
	c0,0.372,0.037,1.227,0.502,1.841h-3.955c0.466-0.614,0.502-1.469,0.502-1.841V31.268z"/>
<path fill="#231F20" d="M48.191,38.904c0,1.007-0.793,1.472-2.111,1.472h-3.545v-2.982h3.449c1.529,0,2.207,0.562,2.207,1.472
	V38.904z M42.535,32.047h2.945c1.258,0,1.955,0.504,1.955,1.395v0.039c0,1.007-0.832,1.433-2.15,1.433h-2.75V32.047z M48.617,35.901
	c0.97-0.542,1.783-1.395,1.783-2.925v-0.038c0-0.93-0.311-1.687-0.93-2.306c-0.775-0.775-1.996-1.201-3.545-1.201H39.13
	c0.442,0.586,0.497,1.386,0.5,1.782v9.999c-0.003,0.395-0.058,1.195-0.5,1.78l6.95-0.002c3.061,0,5.076-1.24,5.076-3.719v-0.039
	C51.156,37.412,50.188,36.502,48.617,35.901"/>
<path fill="#231F20" d="M75.359,42.994c-0.436-0.171-0.983-0.568-1.344-0.977l-1.123-1.517l-0.365-0.5c0,0.001,0,0.003-0.002,0.004
	l-3.561-4.815l4.846-5.05c0.338-0.33,0.584-0.507,0.861-0.696h-0.193l0.008-0.008h-3.604l-0.007,0.008h-1.048
	c0.074,0.13,0.223,0.279,0.223,0.502c0,0.261-0.167,0.539-0.316,0.707l-0.127,0.158l-4.227,4.553V30.77
	c0.045-0.41,0.162-0.93,0.475-1.343H61.9c0.396,0.524,0.481,1.221,0.498,1.646v10.285c-0.017,0.425-0.102,1.122-0.498,1.646h3.955
	c-0.312-0.413-0.43-0.933-0.475-1.343v-2.81l1.57-1.627l4.203,5.772h3.584l-0.002-0.002H75.359z"/>
<path fill="#231F20" d="M85.779,40.342h-5.711v-2.848h4.799c0.377,0.005,1.075,0.052,1.592,0.444v-3.537
	c-0.461,0.351-1.07,0.424-1.463,0.439h-4.928V32.09h5.879c0.348,0.009,0.939,0.07,1.387,0.443v-3.099h-2.81v0.002h-6.315v-0.002
	h-1.641c0.465,0.612,0.502,1.468,0.502,1.839v9.882c0,0.371-0.037,1.226-0.502,1.839h0.536v0.002h10.33v-3.095
	C86.914,40.263,86.211,40.33,85.779,40.342"/>
<path fill="#231F20" d="M96.615,34.88c-2.344-0.602-2.924-0.892-2.924-1.782v-0.039c0-0.658,0.601-1.181,1.744-1.181
	c1.143,0,2.323,0.503,3.524,1.336l0.621-0.9c0.001,0,0.001,0.001,0.001,0.001l1.188-1.722c-0.49,0.021-0.961-0.155-1.318-0.341
	c-1.153-0.652-2.482-1.01-3.979-1.01c-2.77,0-4.746,1.627-4.746,4.087v0.039c0,2.693,1.764,3.448,4.495,4.146
	c2.267,0.58,2.731,0.968,2.731,1.723v0.039c0,0.794-0.736,1.279-1.957,1.279c-1.549,0-2.827-0.641-4.049-1.647L91.27,39.72
	c0,0,0,0,0-0.001l-1.358,1.591c0.543,0.031,1.034,0.303,1.379,0.545c0.002-0.002,0.002-0.005,0.004-0.007
	c1.411,0.893,3.032,1.342,4.644,1.342c2.926,0,4.979-1.511,4.979-4.203v-0.039C100.916,36.585,99.367,35.597,96.615,34.88"/>
<path fill="#231F20" d="M87.893,80.055h-5.71v-2.849h4.799c0.376,0.006,1.075,0.052,1.592,0.444v-3.537
	c-0.463,0.351-1.071,0.424-1.464,0.439h-4.927v-2.751h5.878c0.349,0.01,0.939,0.07,1.387,0.443v-3.099h-2.809v0.002h-6.316v-0.002
	h-1.64c0.464,0.613,0.502,1.468,0.502,1.839v9.882c0,0.371-0.038,1.226-0.502,1.839h0.536v0.002h10.33v-3.095
	C89.027,79.976,88.324,80.042,87.893,80.055"/>
<path fill="#231F20" d="M73.775,80.055h-5.71v-2.849h4.799c0.376,0.006,1.075,0.052,1.593,0.444v-3.537
	c-0.463,0.351-1.072,0.424-1.465,0.439h-4.927v-2.751h5.878c0.35,0.01,0.939,0.07,1.387,0.443v-3.099h-2.809v0.002h-6.316v-0.002
	h-1.64c0.464,0.613,0.502,1.468,0.502,1.839v9.882c0,0.371-0.038,1.226-0.502,1.839h0.536v0.002h10.33v-3.095
	C74.909,79.976,74.207,80.042,73.775,80.055"/>
<path fill="#231F20" d="M46.287,69.184h-4.244c0.199,0.214,0.373,0.8,0.25,1.212l-0.123,0.511l-2.28,7.459l-3.042-9.22h-2.557
	l-3.041,9.22l-2.276-7.442l-0.117-0.492c-0.129-0.424,0.052-1.027,0.256-1.247h-4.364c0.293,0.18,0.689,0.551,0.908,1.214
	l4.219,12.443h2.596l3.06-8.872l3.062,8.872h2.596l4.314-12.729C45.722,69.624,46.041,69.335,46.287,69.184"/>
<path fill="#231F20" d="M60.526,71.024c0-0.372,0.037-1.227,0.502-1.841h-3.979c0.382,0.505,0.473,1.169,0.494,1.599v3.768h-5.5
	v-3.525c0-0.372,0.037-1.227,0.502-1.841h-3.98c0.379,0.5,0.473,1.158,0.494,1.586v10.403c-0.021,0.429-0.115,1.086-0.494,1.587
	h3.98c-0.465-0.614-0.502-1.47-0.502-1.841V77.3h5.5v3.862c-0.021,0.428-0.112,1.093-0.494,1.598h3.979
	c-0.465-0.614-0.502-1.47-0.502-1.841V71.024z"/>
<path fill="#231F20" d="M103.203,79.587c-0.489,0.34-1.133,0.424-1.575,0.445h-5.179v-9.009c0-0.372,0.037-1.227,0.502-1.84h-3.996
	c0.465,0.613,0.502,1.468,0.502,1.84v9.881c0,0.372-0.037,1.226-0.502,1.839h0.507v0.001h9.743L103.203,79.587z"/>
<path fill="#231F20" d="M110.998,74.592c-2.344-0.601-2.926-0.892-2.926-1.782v-0.039c0-0.658,0.602-1.181,1.744-1.181
	s2.324,0.503,3.525,1.336l0.621-0.9c0.001,0,0.001,0.001,0.001,0.001l1.187-1.722c-0.49,0.021-0.959-0.155-1.316-0.341
	c-1.154-0.652-2.483-1.009-3.979-1.009c-2.771,0-4.745,1.627-4.745,4.087v0.039c0,2.692,1.762,3.447,4.494,4.146
	c2.266,0.58,2.73,0.968,2.73,1.723v0.039c0,0.794-0.735,1.279-1.956,1.279c-1.55,0-2.827-0.64-4.048-1.647l-0.678,0.812v-0.001
	l-1.358,1.591c0.542,0.031,1.034,0.303,1.379,0.545c0.001-0.002,0.001-0.005,0.003-0.007c1.411,0.893,3.031,1.342,4.645,1.342
	c2.924,0,4.978-1.511,4.978-4.203v-0.039C115.298,76.297,113.748,75.309,110.998,74.592"/>
<path fill="#231F20" d="M92.02,105.403c0.262,0.01,0.695,0.061,1.021,0.307v-1.561c-0.002,0.001-0.005,0.002-0.007,0.003v-0.438
	h-6.897v0.68c-0.002-0.001-0.004-0.003-0.006-0.003v1.318c0.325-0.246,0.76-0.297,1.021-0.307h1.518v5.749
	c-0.02,0.263-0.087,0.629-0.301,0.911h2.432c-0.213-0.282-0.279-0.649-0.3-0.911v-5.749H92.02z"/>
<path fill="#231F20" d="M100.979,107.913v-0.023c0-1.428-1.047-2.616-2.521-2.616s-2.498,1.165-2.498,2.593v0.023
	c0,1.426,1.047,2.615,2.521,2.615S100.979,109.34,100.979,107.913 M94.045,107.913v-0.023c0-2.367,1.866-4.305,4.436-4.305
	c2.568,0,4.412,1.914,4.412,4.281v0.023c0,2.366-1.867,4.305-4.436,4.305S94.045,110.28,94.045,107.913"/>
<path fill="#231F20" d="M43.043,105.403c0.262,0.01,0.695,0.061,1.021,0.307v-1.561c-0.002,0.001-0.006,0.002-0.008,0.003v-0.438
	H37.16v0.68c-0.001-0.001-0.005-0.003-0.007-0.003v1.318c0.325-0.246,0.761-0.297,1.022-0.307h1.518v5.749
	c-0.02,0.263-0.086,0.629-0.301,0.911h2.432c-0.214-0.282-0.279-0.649-0.3-0.911v-5.749H43.043z"/>
<path fill="#231F20" d="M52.412,107.913v-0.023c0-1.428-1.048-2.616-2.521-2.616c-1.475,0-2.498,1.165-2.498,2.593v0.023
	c0,1.426,1.047,2.615,2.521,2.615S52.412,109.34,52.412,107.913 M45.479,107.913v-0.023c0-2.367,1.866-4.305,4.436-4.305
	c2.568,0,4.412,1.914,4.412,4.281v0.023c0,2.366-1.867,4.305-4.436,4.305C47.321,112.194,45.479,110.28,45.479,107.913"/>
<path fill="#231F20" d="M72.134,107.913v-0.023c0-1.428-1.046-2.616-2.521-2.616s-2.498,1.165-2.498,2.593v0.023
	c0,1.426,1.047,2.615,2.521,2.615C71.11,110.505,72.134,109.34,72.134,107.913 M65.201,107.913v-0.023
	c0-2.367,1.866-4.305,4.436-4.305c2.568,0,4.41,1.914,4.41,4.281v0.023c0,2.366-1.866,4.305-4.434,4.305
	C67.045,112.194,65.201,110.28,65.201,107.913"/>
<path fill="#231F20" d="M83.828,104.648c0.018-0.264,0.081-0.64,0.301-0.93H81.7c0.285,0.379,0.308,0.903,0.308,1.132v3.982
	l-3.891-5.114h-1.189h-0.812c0.286,0.379,0.308,0.903,0.308,1.132v6.077c0,0.229-0.021,0.754-0.308,1.132h2.429
	c-0.285-0.378-0.308-0.903-0.308-1.132v-4.173l4.032,5.294c0,0,1.859,0.011,1.859,0.01c-0.22-0.289-0.283-0.666-0.301-0.93V104.648z
	"/>
<path fill="#231F20" d="M61.647,106.592c0,0.702-0.513,1.178-1.404,1.178h-1.852v-2.39h1.817c0.892,0,1.438,0.403,1.438,1.188
	V106.592z M63.373,111.447l-0.453-0.612l-1.201-1.758c1.058-0.393,1.783-1.236,1.783-2.581v-0.022c0-0.785-0.25-1.439-0.713-1.903
	c-0.548-0.547-1.367-0.844-2.427-0.844h-4.116c0.285,0.376,0.309,0.9,0.309,1.129v6.068c0,0.228-0.023,0.753-0.309,1.129h2.453
	c-0.285-0.376-0.308-0.901-0.308-1.129v-1.537h1.437l1.783,2.664l2.587-0.004C63.933,111.942,63.596,111.698,63.373,111.447"/>
<path fill="#231F20" d="M31.035,94.203l-1.473,0.849l-1.471-0.851l0.001-1.699l1.472-0.851l1.473,0.852L31.035,94.203z
	 M109.965,92.998l1.174-0.771l2.279,1.137c-0.008-1.051-0.586-2.061-1.59-2.566c-1.164-0.588-2.537-0.313-3.395,0.585
	c-0.266,0.242-0.654,0.6-1.199,0.615H33.08c-0.561-0.029-1.131-0.158-1.783-0.707c-0.178-0.159-0.379-0.3-0.602-0.413
	c-1.383-0.697-3.068-0.143-3.767,1.241c-0.697,1.382-0.142,3.067,1.241,3.765c1.057,0.534,2.291,0.332,3.125-0.41
	c0.906-0.69,1.5-0.692,2.207-0.692V94.78h73.846c0.493,0.045,0.805,0.31,1.105,0.616c0.217,0.226,0.475,0.419,0.77,0.568
	c1.074,0.542,2.326,0.35,3.186-0.386l-2.365-1.18L109.965,92.998z"/>
</svg>
