<?xml version="1.0" encoding="utf-8"?>
<!-- Generator: Adobe Illustrator 16.0.0, SVG Export Plug-In . SVG Version: 6.00 Build 0)  -->
<!DOCTYPE svg PUBLIC "-//W3C//DTD SVG 1.1//EN" "http://www.w3.org/Graphics/SVG/1.1/DTD/svg11.dtd">
<svg version="1.1" id="Layer_1" xmlns="http://www.w3.org/2000/svg" xmlns:xlink="http://www.w3.org/1999/xlink" x="0px" y="0px"
	 width="141.648px" height="160px" viewBox="0 0 141.648 160" enable-background="new 0 0 141.648 160" xml:space="preserve">
<g>
	<path fill="#231F20" d="M57.068,157.116c-1.97-4.453-1.284-10.192-0.6-14.988c0,0,4.287-24.964,5.464-31.688
		c1.03,0.089,1.819,0.142,2.862,0.348c0,0-6,34.411-5.471,34.595c0.53,0.184,3.727-15.89,7.143-34.196
		c1.176,0.268,1.875,0.505,2.938,0.863c-2.878,15.287-5.697,30.191-5.912,31.191C61.094,154.804,57.068,157.116,57.068,157.116
		 M53.438,121.481c-2.017-2.122-3.927-0.53-2.44,1.697c-5.838-2.547-10.853-11.993-10.826-17.617
		c0.106-2.229-2.104-1.511-2.229,0.425c-1.893-7.689,2.948-14.32,4.775-17.619c1.652-2.291-0.414-2.502-1.379-1.486
		c-1.662-3.716,7.225-9.151,4.134-8.938c-3.333,0.561-10.159,1.556-12.455,1.927c-0.403,1.307-0.722,3.496-0.865,5.396
		c-4.306-1.144-7.716-9.181-4.153-17.826c3.049-7.413,11.418-8.556,13.683-9.584c1.255-0.473,2.018-0.957,3.264-1.755
		c1.54-1.511,3.437-12.193,11.634-15.855c-0.955,1.194-0.318,2.547,0.891,1.847c6.67-4.066,10.793-5.132,16.236-4.9
		c-0.234,1.358-0.436,2.512-0.589,3.364c-3.073-0.365-4.767-0.336-5.409-0.328c-0.203,0.371-0.306,1.334-0.19,1.702
		c1.194,0.472,2.435,0.873,4.733,1.452c-0.19,1.12-1.035,5.759-1.65,9.276c-1.088-0.317-2.133-0.657-3.1-1.013
		c1.273,5.253,15.73,6.76,17.989,2.864c-1.122,0.157-2.417,0.189-3.812,0.123c0.314-1.646,1.552-8.133,1.742-9.303
		c2.693,0.326,4.569,0.483,7.252,0.758c0.199-0.51,0.352-1.098,0.276-1.675c-2.653-0.761-4.438-1.293-7.146-2.009
		c0.111-0.566,0.348-1.931,0.656-3.768c11.592,3.199,20.523,13.891,21.062,18.176c-1.018-1.27-2.945-1.241-1.671,1.307
		c3.396,4.882,11.993,19.953,9.34,27.383c-0.319-3.503-2.44-3.184-2.229-0.105c-0.25,2.837-0.317,26.958-10.4,29.717
		c1.648-1.948-0.212-3.609-1.518-1.61c0.014,0.062-11.855,12.86-21.515,12.542c1.767-1.388,0.788-3.166-1.177-1.596
		c-3.078,2.055-5.811,3.137-8.244,3.544c0.884-4.604,1.887-9.898,2.895-15.374c1.373,0.52,2.008,0.892,2.854,1.437
		c-0.069-4.62-13.621-8.243-16.862-3.389c1.18-0.271,2.157-0.401,3.127-0.401c-0.932,5.354-1.781,10.409-2.537,14.992
		C55.943,124.046,54.58,122.653,53.438,121.481 M73.816,44.43c1.645,0.278,2.764,2.901,2.389,5.729l-0.703,3.686
		c-1.099-0.214-2.195-0.464-3.268-0.739C72.603,51.044,73.521,45.977,73.816,44.43 M76.773,54.078
		c0.46-2.318,1.125-5.203,1.634-5.656c0.591-0.525,1.896-0.464,2.839-0.437c-0.041,0.162-0.769,3.937-1.263,6.523
		C78.94,54.409,77.862,54.263,76.773,54.078 M53.873,135.253l-0.416,0.207l-2.037-0.724l0.701-1.968l2.035,0.723l0.196,0.412
		L53.873,135.253z M128.174,40.998c-9.5-13.121-22.892-22.4-38.274-26.672l-1.212,7.586c0.674-0.081,1.355-0.488,1.902-1.306
		c1.059-1.586,1.65-1.9,2.568-1.72c0.996,0.197,1.526,0.563,1.526,0.563s1.024,0.406,0.788,2.83
		c-0.184,1.868,0.449,2.434,1.296,2.855l0.004-0.008c0.875,0.441,2.007,0.294,2.981-0.771c1.287-1.406,1.92-1.627,2.801-1.31
		c0.953,0.347,1.422,0.789,1.422,0.789s0.951,0.557,0.35,2.917c-0.464,1.818,0.074,2.474,0.848,3.02l0.006-0.009
		c0.797,0.569,1.938,0.597,3.063-0.31c1.487-1.195,2.146-1.317,2.968-0.868c0.89,0.486,1.285,0.994,1.285,0.994
		s0.856,0.694-0.098,2.938c-0.734,1.727-0.301,2.454,0.38,3.111l0.007-0.006c0.701,0.683,1.826,0.883,3.075,0.159
		c1.651-0.956,2.319-0.978,3.063-0.409c0.808,0.616,1.121,1.178,1.121,1.178s0.74,0.816-0.541,2.889
		c-0.99,1.596-0.672,2.382-0.099,3.135l0.009-0.006c0.59,0.782,1.67,1.149,3.016,0.623c1.775-0.694,2.441-0.613,3.091,0.062
		c0.703,0.731,0.927,1.334,0.927,1.334s0.609,0.92-0.972,2.773c-1.22,1.427-1.025,2.252-0.573,3.083l0.008-0.004
		c0.467,0.861,1.477,1.39,2.887,1.073c1.861-0.417,2.506-0.235,3.047,0.529c0.584,0.83,0.715,1.46,0.715,1.46
		s0.461,1.001-1.383,2.592c-1.422,1.227-1.355,2.071-1.033,2.961l0.008-0.003c0.329,0.924,1.248,1.6,2.689,1.5
		c1.902-0.13,2.514,0.147,2.932,0.986c0.451,0.908,0.484,1.551,0.484,1.551s0.304,1.061-1.76,2.354
		c-1.592,0.995-1.654,1.84-1.472,2.769l0.009-0.001c0.186,0.962,0.992,1.77,2.432,1.891c1.9,0.16,2.461,0.526,2.746,1.42
		c0.31,0.966,0.244,1.605,0.244,1.605s0.141,1.094-2.097,2.059c-1.724,0.742-1.913,1.568-1.874,2.514h0.009
		c0.037,0.979,0.712,1.899,2.117,2.238c1.854,0.446,2.353,0.894,2.499,1.819c0.158,1.002-0.004,1.625-0.004,1.625
		s-0.025,1.103-2.385,1.716c-1.815,0.473-2.129,1.261-2.233,2.201l0.011,0.001c-0.113,0.974,0.414,1.985,1.752,2.532
		c1.764,0.724,2.188,1.242,2.193,2.179c0.004,1.015-0.25,1.605-0.25,1.605s-0.193,1.086-2.617,1.335
		c-1.867,0.19-2.296,0.922-2.542,1.836l0.009,0.003c-0.259,0.945,0.109,2.025,1.348,2.769c1.634,0.983,1.976,1.56,1.839,2.486
		c-0.149,1.003-0.491,1.549-0.491,1.549s-0.355,1.043-2.789,0.921c-1.875-0.094-2.41,0.564-2.792,1.431l0.009,0.004
		c-0.399,0.895-0.199,2.018,0.911,2.941c1.468,1.22,1.716,1.841,1.44,2.736c-0.301,0.968-0.721,1.456-0.721,1.456
		s-0.51,0.978-2.896,0.488c-1.839-0.378-2.468,0.191-2.977,0.989l0.008,0.006c-0.53,0.822-0.504,1.964,0.455,3.045
		c1.264,1.428,1.416,2.081,1.008,2.923c-0.444,0.913-0.934,1.331-0.934,1.331s-0.651,0.888-2.938,0.042
		c-1.76-0.653-2.467-0.186-3.091,0.525l0.006,0.008c-0.649,0.733-0.795,1.863-0.013,3.08c1.033,1.602,1.086,2.27,0.554,3.041
		c-0.577,0.834-1.125,1.174-1.125,1.174s-0.779,0.777-2.91-0.404c-1.64-0.913-2.41-0.558-3.135,0.051l0.006,0.007
		c-0.753,0.627-1.069,1.724-0.481,3.042c0.779,1.741,0.729,2.409,0.086,3.091c-0.697,0.736-1.289,0.989-1.289,0.989
		s-0.89,0.651-2.815-0.841c-1.483-1.15-2.298-0.918-3.106-0.426l0.004,0.008c-0.84,0.505-1.317,1.541-0.937,2.936
		c0.505,1.838,0.354,2.49-0.384,3.066c-0.803,0.622-1.426,0.782-1.426,0.782s-0.978,0.509-2.654-1.258
		c-1.291-1.362-2.133-1.255-3.006-0.894l0.003,0.01c-0.906,0.372-1.537,1.322-1.371,2.758c0.22,1.894-0.028,2.516-0.847,2.974
		c-0.885,0.494-1.526,0.557-1.526,0.557s-1.043,0.354-2.433-1.646c-1.069-1.542-1.916-1.564-2.836-1.338l0.002,0.009
		c-0.953,0.23-1.721,1.074-1.773,2.518c-0.07,1.906-0.41,2.483-1.287,2.812c-0.951,0.354-1.594,0.318-1.594,0.318
		s-1.085,0.191-2.155-1.996c-0.823-1.688-1.657-1.837-2.601-1.753v0.009c-0.977,0.083-1.863,0.8-2.135,2.22
		c-0.358,1.873-0.781,2.392-1.699,2.583c-0.994,0.205-1.623,0.072-1.623,0.072s-1.102,0.025-1.827-2.3
		c-0.558-1.792-1.358-2.068-2.304-2.127l-0.002,0.008c-0.977-0.066-1.963,0.509-2.446,1.871c-0.64,1.797-1.136,2.245-2.071,2.295
		c-0.391,0.02-0.719-0.001-0.977-0.035c0.955-2.675,1.541-5.218,1.9-6.944c0.178-0.854,0.553-2.716,1.064-5.305l-0.107,5.171
		l2.006,0.042l0.102-4.906l2.501,4.96l2.315,0.048l0.17-8.236l-2.006-0.041l-0.1,4.834l-2.525-4.89l-1.757-0.035
		c0.16-0.82,0.329-1.686,0.505-2.59c25.23,1.784,48.159-16.033,52.23-41.474c2.085-13.031-1.029-26.093-8.768-36.781
		c-6.442-8.896-15.449-15.259-25.802-18.346c0.694-4.188,1.543-9.391,2.222-13.575c0.642-3.94,1.131-6.976,1.201-7.399
		c0.213-1.312,1.234-2.493,2.154-3.691c0.447-0.592,0.74-1.186,0.913-1.772c0.312-1.25,0.2-2.659-0.276-3.341
		c-0.149-0.192-0.289-0.134-0.561,0.038c-0.773,0.581-2.74,1.872-3.379,2.214c-0.213,0.066-0.381,0.072-0.594-0.063
		c-0.301-0.42-2.037-2.821-2.142-3.206c-0.099-0.217-0.021-0.506,0.177-0.675c0.781-0.562,2.403-1.632,3.268-2.23
		c0.25-0.162,0.238-0.236,0.193-0.335c-0.195-0.257-0.438-0.468-0.719-0.638c-0.712-0.386-1.559-0.555-2.463-0.53
		c-0.787,0.029-1.623,0.197-2.428,0.483c-0.067,0.023-0.135,0.048-0.202,0.074c-0.048,0.018-0.097,0.036-0.146,0.057
		c-0.129,0.052-0.258,0.105-0.387,0.165c-4.26,2.138-3.033,6.297-3.55,8.898c-0.203,1.204-0.865,5.195-1.663,9.987
		c-0.727,4.363-1.566,9.389-2.277,13.585c-11.594-0.856-23.006,2.363-32.531,9.26C31.157,50.252,24.123,61.69,22.037,74.72
		c-3.965,24.78,11.323,48.275,34.785,55.189c-0.184,1.123-0.359,2.207-0.529,3.251l-0.315-0.656l-5.468-1.942l-2.758,7.762
		l2.125,0.756l1.024-2.88l1.451,0.515l-0.045,3.229l2.216,0.788l-0.023-3.607l1.246-0.583c-0.279,1.711-0.533,3.278-0.762,4.674
		c-0.411,2.507-0.646,4.754-0.721,6.791c-0.036-0.002-0.072-0.004-0.11-0.008c-1.01-0.102-1.571-0.418-1.571-0.418
		s-1.058-0.306-1.053-2.742c0.008-1.877-0.675-2.38-1.559-2.721l-0.004,0.009c-0.912-0.356-2.025-0.104-2.896,1.049
		c-1.148,1.523-1.756,1.803-2.664,1.568c-0.982-0.254-1.488-0.651-1.488-0.651s-1-0.464-0.625-2.87
		c0.291-1.854-0.307-2.455-1.129-2.926l-0.005,0.008c-0.847-0.49-1.985-0.409-3.021,0.598c-1.366,1.332-2.01,1.514-2.872,1.146
		c-0.933-0.399-1.373-0.87-1.373-0.87s-0.917-0.608-0.181-2.931c0.568-1.789,0.068-2.474-0.672-3.064l-0.006,0.008
		c-0.764-0.614-1.9-0.707-3.076,0.133c-1.554,1.106-2.218,1.19-3.014,0.697c-0.859-0.538-1.225-1.069-1.225-1.069
		s-0.814-0.742,0.266-2.925c0.834-1.683,0.443-2.436-0.199-3.13L25.78,126.9c-0.662-0.723-1.772-0.986-3.062-0.336
		c-1.702,0.859-2.371,0.841-3.084,0.231c-0.769-0.662-1.049-1.242-1.049-1.242s-0.691-0.856,0.707-2.852
		c1.08-1.536,0.809-2.338,0.278-3.123l-0.007,0.005c-0.545-0.814-1.602-1.244-2.975-0.798c-1.814,0.593-2.473,0.472-3.084-0.238
		c-0.66-0.771-0.848-1.386-0.848-1.386s-0.555-0.953,1.133-2.712c1.299-1.354,1.152-2.188,0.748-3.044l-0.009,0.003
		c-0.414-0.888-1.394-1.473-2.819-1.239c-1.883,0.31-2.515,0.091-3.011-0.704c-0.536-0.862-0.629-1.5-0.629-1.5
		s-0.403-1.024,1.531-2.508c1.489-1.14,1.471-1.988,1.202-2.896l-0.01,0.002c-0.274-0.939-1.153-1.667-2.599-1.652
		c-1.907,0.02-2.499-0.292-2.868-1.153c-0.398-0.934-0.394-1.577-0.394-1.577s-0.244-1.074,1.893-2.246
		c1.646-0.902,1.757-1.742,1.628-2.681l-0.01,0.001c-0.128-0.972-0.887-1.822-2.318-2.027c-1.888-0.271-2.426-0.668-2.66-1.575
		c-0.252-0.983-0.148-1.618-0.148-1.618S3.24,86.937,5.53,86.102c1.763-0.642,2-1.455,2.015-2.402H7.537
		c0.02-0.98-0.602-1.938-1.984-2.356c-1.825-0.554-2.297-1.028-2.391-1.961c-0.1-1.01,0.098-1.622,0.098-1.622
		s0.091-1.098,2.48-1.575c1.84-0.366,2.198-1.135,2.355-2.068l-0.008-0.002c0.168-0.965-0.301-2.006-1.603-2.63
		c-1.722-0.824-2.114-1.365-2.065-2.3c0.055-1.015,0.342-1.59,0.342-1.59s0.257-1.071,2.69-1.181
		c1.875-0.083,2.345-0.788,2.644-1.687l-0.008-0.004c0.312-0.928,0.008-2.027-1.186-2.843c-1.575-1.075-1.882-1.67-1.691-2.587
		c0.207-0.994,0.578-1.518,0.578-1.518s0.416-1.021,2.84-0.759c1.865,0.201,2.437-0.424,2.869-1.267l-0.009-0.004
		c0.45-0.871,0.315-2.004-0.739-2.99c-1.396-1.303-1.607-1.937-1.281-2.813c0.356-0.951,0.804-1.413,0.804-1.413
		s0.565-0.946,2.921-0.319c1.812,0.483,2.473-0.049,3.027-0.816l-0.008-0.006c0.578-0.792,0.617-1.932-0.277-3.067
		c-1.18-1.498-1.294-2.157-0.838-2.976c0.496-0.886,1.009-1.274,1.009-1.274s0.703-0.85,2.937,0.128
		c1.717,0.753,2.45,0.328,3.115-0.347l-0.006-0.008c0.689-0.694,0.9-1.815,0.191-3.073c-0.94-1.66-0.952-2.329-0.377-3.068
		c0.625-0.8,1.189-1.107,1.189-1.107s0.824-0.731,2.883,0.572c1.584,1.005,2.373,0.696,3.133,0.13l-0.006-0.007
		c0.789-0.583,1.168-1.659,0.655-3.01c-0.676-1.784-0.587-2.447,0.093-3.09c0.739-0.696,1.346-0.913,1.346-0.913
		s0.925-0.6,2.762,1.002c1.413,1.233,2.24,1.048,3.076,0.603l-0.004-0.007C39.961,27.42,40.5,26.413,40.198,25
		c-0.397-1.865-0.209-2.507,0.562-3.039c0.836-0.577,1.468-0.699,1.468-0.699s1.005-0.451,2.577,1.41
		c1.211,1.435,2.056,1.376,2.949,1.063l-0.002-0.008c0.926-0.319,1.61-1.232,1.528-2.676c-0.11-1.902,0.173-2.51,1.015-2.919
		c0.916-0.442,1.558-0.468,1.558-0.468s1.062-0.293,2.334,1.785c0.979,1.6,1.823,1.672,2.754,1.499l-0.001-0.009
		c0.964-0.176,1.779-0.974,1.916-2.412c0.18-1.898,0.553-2.454,1.447-2.731c0.971-0.299,1.609-0.226,1.609-0.226
		s1.094-0.129,2.036,2.118c0.724,1.73,1.548,1.929,2.494,1.899V19.58c0.979-0.027,1.907-0.692,2.261-2.093
		c0.465-1.85,0.918-2.342,1.844-2.48c1.006-0.147,1.627,0.021,1.627,0.021s1.101,0.038,1.69,2.402
		c0.315,1.27,0.793,1.809,1.371,2.059l1.122-7.561c-16.77-1.342-33.295,3.271-47.068,13.244
		C13.969,36.266,3.885,52.662,0.896,71.339c-5.88,36.751,17.784,71.531,53.403,80.05c0.209,3.403,0.963,6.164,2.17,8.611
		c2.441-1.726,4.24-4.394,5.565-7.207c37.653,4.726,72.666-21.321,78.708-59.075C143.731,75.041,139.268,56.319,128.174,40.998"/>
	<polygon fill="#FFFFFF" points="43.806,134.527 44.357,134.365 46.324,130.761 46.163,130.209 44.665,129.392 44.113,129.554 
		42.146,133.158 42.307,133.709 	"/>
	<polygon fill="#FFFFFF" points="95.699,32.834 93.771,31.914 92.969,33.595 94.877,34.505 95.273,34.364 95.824,33.211 	"/>
	<path fill="#FFFFFF" d="M93.795,26.594l5.215,2.487l0.543,1.528l-0.838,1.757l-1.254,0.436l0.457,1.289l-0.904,1.896l-1.528,0.541
		l-5.238-2.498L93.795,26.594z M99.606,37.183l2.843-4.261l-1.133-0.756l0.861-1.292l4.162,2.776l-0.861,1.292l-1.143-0.762
		l-2.842,4.261l1.143,0.762l-0.869,1.302l-4.161-2.776l0.868-1.301L99.606,37.183z M108.471,35.224l1.681,1.505l-2.668,2.98
		l4.465-1.371l1.877,1.681l-3.884,1.026l-1.54,5.175l-1.868-1.672l1.053-3.306l-1.959,0.539l-0.971,1.085l-1.682-1.505
		L108.471,35.224z M115.567,41.938l3.688,4.465l-1.316,1.088l-2.251-2.725l-1.142,0.943l2.03,2.457l-1.317,1.088l-2.029-2.458
		l-1.262,1.042l2.267,2.742l-1.315,1.089l-3.705-4.483L115.567,41.938z M119.793,49.158l1.639,0.406l2.318,3.845l-0.395,1.589
		l-1.207,0.729l-1.165-1.933l0.583-0.352l0.089-0.361l-0.937-1.554l-0.338-0.075l-0.981,0.593l-0.071,0.252l1.756,2.914
		l-0.345,1.393l-2.413,1.455l-1.639-0.406l-2.35-3.896l0.395-1.591l1.207-0.728l1.165,1.933l-0.583,0.353l-0.079,0.354l0.968,1.605
		l0.328,0.082l1.021-0.617l0.062-0.246l-1.757-2.914l0.355-1.398L119.793,49.158z M125.987,61.004l1.593,0.814l1.387,4.295
		l-0.812,1.604l-5.431,1.754l-1.598-0.827l-1.386-4.295l0.815-1.593L125.987,61.004z M130.027,70.211l0.334,2.268l-4.402,3.304
		l4.784-0.705l0.293,1.985l-8.151,1.2l-0.338-2.291l4.477-3.291l-4.855,0.715l-0.291-1.984L130.027,70.211z M131.172,85.884
		l-6.211,0.207l5.982,1.846l-0.32,2.872l-6.242,0.479l6.012,1.573l-0.209,1.875l-8.021-2.41l0.312-2.789l6.302-0.484l-6.04-1.865
		l0.318-2.847l8.355-0.582L131.172,85.884z M128.771,99.447l-3.099-0.972l-0.719,2.29l3.1,0.972l-0.68,2.165l-7.861-2.465
		l0.679-2.165l2.883,0.904l0.718-2.291l-2.882-0.903l0.675-2.154l7.862,2.466L128.771,99.447z M123.649,111.852l-1.531-0.756
		l1.565-3.169l-1.328-0.656l-1.411,2.859l-1.531-0.757l1.411-2.857l-1.466-0.726l-1.575,3.191l-1.531-0.756l2.574-5.214l7.387,3.646
		L123.649,111.852z M118.973,119.009l-1.409-0.965l1.997-2.916l-1.221-0.838l-1.803,2.632l-1.408-0.966l1.801-2.631l-1.35-0.924
		l-2.011,2.937l-1.409-0.966l3.287-4.798l6.798,4.656L118.973,119.009z M115.752,122.793l-4.779-4.313l-2.017,2.234l-1.338-1.209
		l3.528-3.909l6.117,5.521L115.752,122.793z M111.166,127.434l-3.447,2.876l-1.631-0.147l-0.904-1.082l1.734-1.445l0.436,0.522
		l0.369,0.033l1.394-1.163l0.022-0.345l-0.733-0.88l-0.26-0.032l-2.613,2.18l-1.429-0.129l-1.807-2.164l0.152-1.682l3.493-2.914
		l1.631,0.148l0.903,1.08l-1.733,1.446l-0.437-0.521l-0.361-0.025l-1.439,1.201l-0.029,0.336l0.764,0.917l0.253,0.022l2.612-2.18
		l1.438,0.138l1.774,2.128L111.166,127.434z M96.932,134.006l-1.385,0.677l-1.037-0.357l-0.756-1.544l0.356-1.038l1.384-0.677
		l1.049,0.352l0.756,1.545L96.932,134.006z M89.451,139.853l-4.348,1.213l-1.559-0.879l-1.535-5.497l0.879-1.559l4.348-1.213
		l1.57,0.875l1.535,5.496L89.451,139.853z M78.913,135.696l0.815,6.372l-2.25,0.288l-0.816-6.372l-2.179,0.279l-0.229-1.801
		l6.619-0.848l0.231,1.801L78.913,135.696z M85.034,35.207c10.353,3.088,19.358,9.449,25.802,18.346
		c7.738,10.688,10.854,23.751,8.768,36.782c-4.071,25.439-27,43.258-52.231,41.474c-0.175,0.904-0.343,1.769-0.504,2.589
		l1.757,0.036l2.525,4.889l0.1-4.835l2.006,0.042l-0.17,8.236l-2.315-0.048l-2.501-4.96l-0.102,4.905l-2.006-0.041l0.107-5.172
		c-0.512,2.59-0.887,4.451-1.064,5.306c-0.359,1.726-0.945,4.27-1.9,6.944c0.258,0.033,0.586,0.056,0.977,0.035
		c0.936-0.05,1.432-0.499,2.071-2.295c0.483-1.362,1.47-1.937,2.446-1.871l0.002-0.009c0.944,0.06,1.746,0.335,2.305,2.128
		c0.724,2.325,1.826,2.3,1.826,2.3s0.63,0.132,1.623-0.073c0.918-0.19,1.341-0.71,1.699-2.583c0.272-1.419,1.159-2.137,2.135-2.22
		v-0.009c0.943-0.084,1.777,0.067,2.601,1.753c1.069,2.189,2.155,1.997,2.155,1.997s0.642,0.035,1.594-0.318
		c0.877-0.328,1.216-0.905,1.287-2.812c0.053-1.443,0.82-2.287,1.773-2.518l-0.002-0.009c0.92-0.227,1.767-0.205,2.836,1.338
		c1.39,2.001,2.434,1.646,2.434,1.646s0.64-0.062,1.525-0.556c0.818-0.458,1.066-1.08,0.847-2.975
		c-0.165-1.435,0.465-2.386,1.37-2.758l-0.002-0.009c0.873-0.362,1.715-0.471,3.006,0.893c1.677,1.768,2.654,1.258,2.654,1.258
		s0.623-0.159,1.426-0.782c0.738-0.576,0.889-1.229,0.385-3.067c-0.382-1.393,0.096-2.429,0.936-2.934l-0.004-0.009
		c0.809-0.491,1.623-0.725,3.106,0.426c1.926,1.492,2.815,0.841,2.815,0.841s0.592-0.252,1.289-0.989
		c0.643-0.681,0.693-1.349-0.086-3.091c-0.588-1.319-0.271-2.414,0.481-3.042l-0.007-0.007c0.726-0.608,1.496-0.963,3.136-0.051
		c2.131,1.183,2.91,0.403,2.91,0.403s0.548-0.339,1.125-1.173c0.532-0.772,0.479-1.439-0.554-3.041
		c-0.783-1.216-0.637-2.347,0.014-3.081l-0.008-0.006c0.625-0.712,1.332-1.179,3.093-0.526c2.284,0.847,2.937-0.042,2.937-0.042
		s0.489-0.419,0.934-1.331c0.408-0.843,0.257-1.495-1.008-2.923c-0.959-1.082-0.985-2.222-0.455-3.046l-0.008-0.005
		c0.508-0.798,1.138-1.367,2.977-0.989c2.386,0.489,2.896-0.488,2.896-0.488s0.42-0.487,0.721-1.455
		c0.275-0.896,0.027-1.518-1.44-2.737c-1.11-0.923-1.31-2.046-0.911-2.941l-0.009-0.005c0.382-0.865,0.917-1.522,2.792-1.429
		c2.434,0.122,2.789-0.921,2.789-0.921s0.341-0.546,0.491-1.549c0.137-0.929-0.205-1.504-1.839-2.486
		c-1.238-0.745-1.606-1.825-1.348-2.77l-0.009-0.003c0.246-0.914,0.675-1.646,2.542-1.837c2.424-0.248,2.617-1.334,2.617-1.334
		s0.254-0.591,0.25-1.605c-0.005-0.938-0.43-1.454-2.193-2.179c-1.337-0.547-1.865-1.559-1.753-2.531l-0.01-0.002
		c0.104-0.94,0.418-1.729,2.233-2.201c2.358-0.614,2.386-1.716,2.386-1.716s0.161-0.623,0.003-1.625
		c-0.146-0.926-0.645-1.372-2.499-1.819c-1.405-0.339-2.08-1.259-2.116-2.238h-0.01c-0.039-0.945,0.15-1.771,1.874-2.514
		c2.237-0.965,2.097-2.058,2.097-2.058s0.065-0.642-0.244-1.607c-0.285-0.892-0.846-1.259-2.746-1.419
		c-1.439-0.122-2.246-0.928-2.432-1.891l-0.009,0.002c-0.183-0.93-0.12-1.775,1.471-2.771c2.065-1.293,1.761-2.352,1.761-2.352
		s-0.033-0.644-0.484-1.552c-0.418-0.839-1.029-1.115-2.932-0.986c-1.441,0.099-2.36-0.576-2.689-1.499l-0.008,0.003
		c-0.322-0.891-0.389-1.735,1.033-2.961c1.844-1.591,1.383-2.592,1.383-2.592s-0.131-0.632-0.715-1.46
		c-0.541-0.766-1.186-0.946-3.047-0.53c-1.408,0.315-2.42-0.211-2.886-1.074l-0.008,0.004c-0.453-0.831-0.647-1.656,0.571-3.083
		c1.582-1.853,0.974-2.771,0.974-2.771s-0.226-0.604-0.927-1.334c-0.651-0.676-1.315-0.757-3.092-0.062
		c-1.346,0.527-2.426,0.159-3.016-0.624l-0.009,0.006c-0.573-0.753-0.892-1.539,0.099-3.134c1.281-2.072,0.541-2.888,0.541-2.888
		s-0.313-0.562-1.119-1.179c-0.744-0.567-1.414-0.547-3.065,0.408c-1.249,0.726-2.373,0.525-3.075-0.158l-0.007,0.007
		c-0.681-0.657-1.114-1.387-0.38-3.113c0.954-2.242,0.097-2.937,0.097-2.937s-0.396-0.508-1.284-0.994
		c-0.822-0.448-1.48-0.326-2.968,0.868c-1.125,0.906-2.267,0.88-3.063,0.311l-0.006,0.007c-0.773-0.546-1.312-1.2-0.848-3.019
		c0.602-2.361-0.35-2.917-0.35-2.917s-0.467-0.442-1.422-0.788c-0.881-0.318-1.514-0.099-2.801,1.309
		c-0.975,1.066-2.106,1.213-2.981,0.772l-0.005,0.007c-0.846-0.422-1.479-0.987-1.295-2.855c0.236-2.425-0.789-2.83-0.789-2.83
		s-0.529-0.365-1.524-0.562c-0.919-0.182-1.511,0.132-2.569,1.718c-0.547,0.818-1.229,1.225-1.902,1.307
		c-0.316,0.038-0.631,0.006-0.928-0.091l-0.004,0.008c-0.175-0.056-0.342-0.118-0.5-0.196
		C86.577,25.815,85.729,31.019,85.034,35.207"/>
	<polygon fill="#FFFFFF" points="20.228,109.538 19.229,110.102 19.111,110.498 20.145,112.328 21.642,111.482 20.602,109.642 	"/>
	<path fill="#FFFFFF" d="M68.766,30.405l-4.535,0.366l-1.247-1.061l-0.114-1.404l2.25-0.182l0.055,0.679l0.281,0.228l1.869-0.149
		l0.219-0.258l-0.096-1.19l-0.193-0.164l-3.392,0.274l-1.095-0.942l-0.223-2.761l1.094-1.286l4.476-0.362l1.248,1.062l0.112,1.404
		l-2.25,0.182l-0.053-0.679l-0.283-0.24l-1.81,0.145l-0.218,0.271l0.092,1.142l0.194,0.176l3.392-0.272l1.094,0.93l0.227,2.809
		L68.766,30.405z M56.834,32.246l-1.826-8.033l2.199-0.5l1.428,6.274l2.934-0.668l0.4,1.759L56.834,32.246z M49.864,34.709
		l-2.897-7.711l5.42-2.037l0.601,1.598l-3.308,1.243l0.521,1.386l2.983-1.122l0.602,1.6l-2.984,1.121l0.576,1.53l3.33-1.252
		l0.6,1.599L49.864,34.709z M43.336,38.154l-3.969-7.22l5.075-2.789l0.823,1.496l-3.098,1.703l0.713,1.297l2.795-1.536l0.821,1.496
		l-2.794,1.536l0.788,1.434l3.118-1.714l0.822,1.496L43.336,38.154z M40.072,40.438l-1.841-2.395l-1.903,1.463l1.842,2.395
		l-1.791,1.375l-5.02-6.532l1.789-1.375l1.979,2.574l1.903-1.462l-1.979-2.575l1.799-1.383l5.021,6.533L40.072,40.438z
		 M32.596,47.086l-5.428-3.24l3.857,5.008l-1.903,2.143l-7.159-4.348l1.42-1.598l5.192,3.415l-3.819-4.959l1.918-2.161l5.375,3.21
		l-4.002-4.754l1.252-1.41l5.16,6.596L32.596,47.086z M24.729,58.136l-5.554,0.127l4.388,2.2l-0.899,1.793l-7.363-3.693l1.026-2.049
		l5.5-0.181l-4.323-2.167l0.9-1.793l7.363,3.692L24.729,58.136z M20.364,69.263L18.782,70.1l-5.455-1.679l-0.837-1.582l1.328-4.314
		l1.586-0.849l5.454,1.68l0.834,1.593L20.364,69.263z M23.174,103.755l-1.457,0.569l-0.494-1.268l-4.771,1.865l0.495,1.268
		l-1.444,0.565l-1.822-4.659l1.445-0.566l0.5,1.279l4.771-1.865l-0.5-1.278l1.457-0.569L23.174,103.755z M27.082,111.013
		l-7.173,4.054l-2.843-5.03l0.434-1.562l1.694-0.958l1.274,0.363l0.367-1.318l1.83-1.034l1.562,0.435L27.082,111.013z M12.317,97.39
		l3.894-0.913l-4.445-1.435l-0.574-2.452l3.771,1.384l4.228-3.358l0.573,2.441l-2.758,2.106l1.914,0.679l1.418-0.332l0.516,2.197
		l-8.021,1.88L12.317,97.39z M10.865,89.998l-0.443-5.774l1.703-0.132l0.271,3.524l1.476-0.113l-0.244-3.18l1.702-0.131l0.245,3.18
		l1.631-0.126l-0.273-3.548l1.703-0.131l0.445,5.798L10.865,89.998z M10.817,75.844l1.246-1.062l1.405,0.112l-0.181,2.249
		l-0.678-0.054l-0.283,0.241l-0.144,1.809l0.23,0.258l1.143,0.092l0.205-0.164l0.271-3.392l1.093-0.931l2.809,0.224l1.096,1.285
		l-0.361,4.535l-1.248,1.062l-1.404-0.11l0.18-2.25l0.68,0.054l0.27-0.242l0.15-1.868l-0.221-0.258l-1.189-0.095l-0.192,0.165
		l-0.271,3.392l-1.104,0.93l-2.763-0.22l-1.094-1.285L10.817,75.844z M28.463,120.593l1.244-1.187l1.098,0.026l1.062,1.114
		l-0.018,1.105l-1.244,1.188l-1.105-0.035l-1.062-1.115L28.463,120.593z M36.03,123.651l1.091-1.45l5.334,4.012l-1.09,1.45
		l-1.766-1.328l-3.861,5.135l-1.812-1.364l3.86-5.134L36.03,123.651z M44.223,127.26l3.961,2.163l0.516,1.723l-2.734,5.009
		l-1.729,0.499l-3.961-2.163l-0.504-1.717l2.734-5.01L44.223,127.26z M73.864,17.431c-0.59-2.364-1.69-2.403-1.69-2.403
		s-0.621-0.168-1.627-0.021c-0.926,0.138-1.379,0.631-1.844,2.479c-0.354,1.402-1.281,2.067-2.26,2.095l-0.001,0.008
		c-0.946,0.03-1.771-0.168-2.494-1.899c-0.942-2.248-2.036-2.119-2.036-2.119s-0.639-0.071-1.609,0.227
		c-0.895,0.276-1.268,0.833-1.447,2.731c-0.137,1.438-0.952,2.237-1.916,2.412l0.001,0.008c-0.931,0.174-1.774,0.103-2.754-1.497
		c-1.272-2.079-2.334-1.785-2.334-1.785s-0.642,0.024-1.558,0.467c-0.842,0.41-1.125,1.016-1.015,2.92
		c0.083,1.443-0.603,2.354-1.528,2.675l0.002,0.008c-0.894,0.312-1.738,0.37-2.949-1.063c-1.572-1.861-2.577-1.41-2.577-1.41
		s-0.632,0.123-1.468,0.699c-0.771,0.532-0.959,1.174-0.562,3.04c0.302,1.413-0.237,2.419-1.104,2.875l0.004,0.008
		c-0.836,0.444-1.662,0.63-3.076-0.604c-1.838-1.601-2.762-1.002-2.762-1.002s-0.606,0.218-1.346,0.913
		c-0.68,0.644-0.769,1.308-0.092,3.09c0.512,1.352,0.132,2.429-0.656,3.011l0.006,0.007c-0.76,0.565-1.549,0.875-3.134-0.13
		c-2.058-1.305-2.882-0.571-2.882-0.571s-0.564,0.306-1.189,1.107c-0.576,0.737-0.563,1.407,0.377,3.067
		c0.711,1.257,0.498,2.379-0.191,3.074l0.006,0.006c-0.664,0.675-1.398,1.101-3.115,0.347c-2.234-0.976-2.937-0.127-2.937-0.127
		s-0.513,0.389-1.009,1.274c-0.457,0.818-0.342,1.477,0.839,2.976c0.894,1.136,0.854,2.276,0.276,3.067l0.008,0.006
		c-0.555,0.769-1.215,1.299-3.027,0.816c-2.355-0.626-2.921,0.318-2.921,0.318s-0.447,0.463-0.804,1.413
		c-0.326,0.878-0.113,1.513,1.281,2.814c1.055,0.987,1.189,2.12,0.739,2.99l0.008,0.004c-0.432,0.843-1.003,1.469-2.868,1.266
		c-2.424-0.261-2.838,0.759-2.838,0.759s-0.373,0.525-0.58,1.52c-0.19,0.917,0.116,1.512,1.691,2.587
		c1.193,0.814,1.498,1.914,1.186,2.843l0.008,0.003c-0.299,0.899-0.769,1.604-2.644,1.688c-2.435,0.108-2.69,1.18-2.69,1.18
		s-0.287,0.576-0.342,1.589c-0.049,0.936,0.346,1.477,2.065,2.3c1.302,0.625,1.771,1.665,1.603,2.63l0.008,0.002
		C7.938,75.05,7.58,75.817,5.74,76.185C3.35,76.662,3.26,77.76,3.26,77.76s-0.197,0.613-0.098,1.622
		c0.094,0.932,0.565,1.408,2.391,1.961c1.383,0.42,2.004,1.377,1.983,2.355l0.009,0.001C7.53,84.646,7.293,85.46,5.53,86.102
		c-2.29,0.834-2.212,1.934-2.212,1.934s-0.104,0.636,0.148,1.618c0.235,0.907,0.772,1.306,2.662,1.575
		c1.43,0.204,2.188,1.057,2.317,2.027h0.009c0.129,0.938,0.018,1.777-1.628,2.68c-2.136,1.172-1.894,2.247-1.894,2.247
		S4.93,98.826,5.328,99.76c0.369,0.86,0.961,1.172,2.868,1.153c1.444-0.016,2.324,0.712,2.599,1.651l0.01-0.002
		c0.27,0.907,0.287,1.755-1.202,2.896c-1.935,1.481-1.53,2.508-1.53,2.508s0.094,0.637,0.628,1.499
		c0.496,0.795,1.128,1.013,3.011,0.704c1.426-0.234,2.405,0.352,2.819,1.238l0.009-0.003c0.404,0.856,0.551,1.691-0.748,3.046
		c-1.687,1.758-1.133,2.711-1.133,2.711s0.188,0.614,0.85,1.386c0.61,0.71,1.269,0.831,3.082,0.239
		c1.373-0.447,2.431-0.018,2.975,0.798l0.008-0.005c0.529,0.783,0.8,1.587-0.277,3.123c-1.4,1.994-0.707,2.851-0.707,2.851
		s0.279,0.58,1.049,1.242c0.711,0.608,1.379,0.628,3.082-0.232c1.291-0.649,2.4-0.386,3.062,0.336l0.007-0.005
		c0.643,0.695,1.033,1.447,0.2,3.129c-1.081,2.184-0.267,2.925-0.267,2.925s0.365,0.531,1.226,1.069
		c0.795,0.494,1.459,0.411,3.013-0.697c1.176-0.839,2.312-0.746,3.076-0.132l0.006-0.007c0.74,0.589,1.24,1.274,0.672,3.063
		c-0.736,2.321,0.182,2.932,0.182,2.932s0.439,0.469,1.373,0.87c0.861,0.368,1.505,0.185,2.871-1.146
		c1.035-1.008,2.174-1.088,3.021-0.598l0.006-0.008c0.82,0.471,1.418,1.071,1.127,2.926c-0.375,2.407,0.625,2.871,0.625,2.871
		s0.506,0.396,1.488,0.649c0.908,0.234,1.516-0.044,2.665-1.566c0.87-1.153,1.983-1.407,2.896-1.05l0.004-0.009
		c0.884,0.341,1.565,0.845,1.56,2.721c-0.006,2.436,1.052,2.742,1.052,2.742s0.561,0.316,1.571,0.419
		c0.038,0.003,0.075,0.005,0.11,0.007c0.074-2.037,0.31-4.283,0.721-6.791c0.229-1.396,0.484-2.962,0.761-4.674l-1.245,0.584
		l0.024,3.605l-2.218-0.787l0.046-3.228l-1.451-0.517l-1.024,2.881l-2.125-0.756l2.758-7.763l5.468,1.943l0.315,0.656
		c0.17-1.045,0.346-2.128,0.529-3.252c-23.462-6.913-38.75-30.407-34.785-55.188c2.086-13.03,9.12-24.469,19.809-32.208
		c9.526-6.898,20.938-10.117,32.531-9.261c0.711-4.196,1.551-9.222,2.277-13.584c-0.203,0.031-0.408,0.036-0.611,0.01l-0.002,0.009
		c-0.285-0.035-0.554-0.089-0.805-0.198C74.657,19.239,74.18,18.699,73.864,17.431"/>
	<polygon fill="#FFFFFF" points="21.931,108.863 22.982,110.725 24.604,109.808 23.564,107.968 23.158,107.854 22.046,108.483 	"/>
	<polygon fill="#FFFFFF" points="122.789,67.066 126.697,65.805 126.959,65.294 126.434,63.669 125.922,63.407 122.015,64.67 
		121.752,65.181 122.277,66.805 	"/>
	<polygon fill="#FFFFFF" points="86.337,133.891 84.693,134.351 84.411,134.851 85.514,138.806 86.015,139.088 87.658,138.629 
		87.941,138.129 86.837,134.173 	"/>
	<polygon fill="#FFFFFF" points="52.121,132.768 51.42,134.736 53.457,135.46 53.873,135.253 54.353,133.902 54.156,133.492 	"/>
	<polygon fill="#FFFFFF" points="15.501,64.079 14.992,64.349 14.49,65.979 14.76,66.487 18.686,67.696 19.193,67.428 
		19.695,65.796 19.427,65.288 	"/>
	<polygon fill="#FFFFFF" points="96.707,31.304 97.201,30.269 97.071,29.877 95.174,28.972 94.434,30.523 96.342,31.434 	"/>
	<path fill="#231F20" d="M94.877,34.505l-1.908-0.91l0.802-1.681l1.929,0.92l0.125,0.377l-0.55,1.153L94.877,34.505z M95.174,28.972
		l1.896,0.904l0.131,0.394l-0.494,1.033l-0.365,0.131l-1.908-0.91L95.174,28.972z M97.014,35.987l0.904-1.897l-0.457-1.289
		l1.252-0.435l0.838-1.756l-0.541-1.528l-5.215-2.488l-3.547,7.437l5.237,2.498L97.014,35.987z"/>
	<polygon fill="#231F20" points="97.606,37.729 101.768,40.505 102.637,39.204 101.494,38.441 104.336,34.18 105.479,34.941 
		106.34,33.65 102.178,30.875 101.316,32.167 102.449,32.922 99.606,37.183 98.475,36.428 	"/>
	<polygon fill="#231F20" points="104.656,42.866 105.628,41.781 107.585,41.242 106.533,44.548 108.4,46.22 109.941,41.045 
		113.826,40.019 111.949,38.338 107.484,39.709 110.152,36.729 108.471,35.224 102.975,41.361 	"/>
	<polygon fill="#231F20" points="112.919,51.669 114.234,50.58 111.969,47.838 113.23,46.796 115.261,49.254 116.576,48.166 
		114.547,45.709 115.688,44.766 117.939,47.49 119.256,46.402 115.566,41.938 109.216,47.186 	"/>
	<polygon fill="#231F20" points="117.064,51.987 118.822,54.901 118.761,55.147 117.738,55.765 117.41,55.683 116.442,54.077 
		116.521,53.724 117.104,53.371 115.939,51.439 114.732,52.166 114.338,53.757 116.688,57.652 118.326,58.059 120.74,56.604 
		121.084,55.21 119.328,52.297 119.398,52.044 120.381,51.452 120.719,51.527 121.656,53.081 121.566,53.442 120.983,53.793 
		122.148,55.727 123.355,54.998 123.75,53.409 121.432,49.564 119.793,49.158 117.42,50.589 	"/>
	<path fill="#231F20" d="M122.015,64.67l3.908-1.263l0.511,0.262l0.524,1.625l-0.261,0.511l-3.908,1.262l-0.512-0.262l-0.524-1.624
		L122.015,64.67z M119.74,64.35l1.388,4.295l1.597,0.826l5.43-1.753l0.812-1.605l-1.387-4.294l-1.594-0.814l-5.431,1.753
		L119.74,64.35z"/>
	<polygon fill="#231F20" points="122.168,73.396 127.023,72.681 122.547,75.971 122.886,78.263 131.037,77.062 130.744,75.078 
		125.959,75.782 130.36,72.479 130.026,70.211 121.877,71.411 	"/>
	<polygon fill="#231F20" points="122.736,87.188 128.777,89.052 122.475,89.538 122.162,92.326 130.185,94.736 130.394,92.861 
		124.382,91.289 130.623,90.808 130.943,87.936 124.962,86.091 131.173,85.883 131.41,83.759 123.055,84.34 	"/>
	<polygon fill="#231F20" points="120.908,96.982 123.792,97.886 123.074,100.176 120.191,99.272 119.512,101.438 127.374,103.902 
		128.053,101.737 124.953,100.765 125.672,98.476 128.771,99.447 129.445,97.294 121.584,94.829 	"/>
	<polygon fill="#231F20" points="116.252,108.226 117.783,108.981 119.357,105.79 120.824,106.516 119.414,109.373 120.945,110.13 
		122.355,107.271 123.684,107.927 122.119,111.096 123.65,111.852 126.213,106.658 118.826,103.012 	"/>
	<polygon fill="#231F20" points="112.16,114.372 113.57,115.337 115.58,112.401 116.931,113.325 115.129,115.956 116.537,116.921 
		118.339,114.291 119.561,115.127 117.564,118.044 118.973,119.008 122.244,114.23 115.447,109.574 	"/>
	<polygon fill="#231F20" points="107.617,119.505 108.957,120.713 110.973,118.479 115.751,122.792 117.263,121.117 
		111.146,115.596 	"/>
	<polygon fill="#231F20" points="108.105,123.486 105.492,125.666 105.24,125.644 104.476,124.727 104.506,124.391 105.945,123.189 
		106.308,123.214 106.744,123.736 108.477,122.29 107.574,121.21 105.942,121.062 102.449,123.976 102.297,125.657 104.103,127.821 
		105.533,127.95 108.146,125.771 108.404,125.803 109.14,126.683 109.117,127.027 107.724,128.19 107.354,128.157 106.918,127.635 
		105.185,129.08 106.088,130.161 107.719,130.31 111.166,127.434 111.317,125.752 109.543,123.624 	"/>
	<path fill="#231F20" d="M23.564,107.968l1.04,1.84l-1.622,0.917l-1.052-1.861l0.114-0.38l1.113-0.629L23.564,107.968z
		 M20.145,112.328l-1.033-1.83l0.118-0.396l0.998-0.564l0.374,0.104l1.04,1.84L20.145,112.328z M20.836,106.562l-0.366,1.317
		l-1.274-0.362l-1.695,0.957l-0.434,1.562l2.844,5.031l7.172-4.053l-2.855-5.053l-1.561-0.434L20.836,106.562z"/>
	<polygon fill="#231F20" points="19.896,99.665 20.396,100.943 15.625,102.809 15.125,101.529 13.679,102.096 15.501,106.755 
		16.947,106.189 16.451,104.922 21.222,103.057 21.718,104.324 23.175,103.755 21.354,99.096 	"/>
	<polygon fill="#231F20" points="20.338,95.51 18.92,95.841 17.007,95.162 19.764,93.057 19.191,90.615 14.962,93.974 
		11.191,92.589 11.768,95.042 16.212,96.478 12.316,97.391 12.832,99.587 20.854,97.706 	"/>
	<polygon fill="#231F20" points="18.635,83.567 16.932,83.698 17.205,87.246 15.574,87.371 15.329,84.193 13.626,84.324 
		13.871,87.502 12.395,87.616 12.124,84.093 10.422,84.224 10.866,89.997 19.08,89.365 	"/>
	<polygon fill="#231F20" points="14.316,81.825 15.421,80.895 15.691,77.503 15.884,77.338 17.074,77.433 17.294,77.689 
		17.145,79.559 16.874,79.801 16.195,79.747 16.016,81.997 17.421,82.107 18.667,81.046 19.029,76.511 17.934,75.226 15.125,75.002 
		14.031,75.933 13.762,79.325 13.557,79.488 12.414,79.396 12.184,79.139 12.328,77.33 12.609,77.089 13.289,77.143 13.468,74.894 
		12.064,74.782 10.816,75.844 10.46,80.318 11.555,81.604 	"/>
	<path fill="#231F20" d="M19.193,67.428l-0.509,0.268l-3.925-1.207l-0.27-0.509l0.502-1.632l0.509-0.268l3.926,1.208l0.269,0.508
		L19.193,67.428z M15.404,61.676l-1.586,0.849l-1.328,4.314l0.836,1.582l5.457,1.679l1.582-0.837l1.328-4.313l-0.834-1.594
		L15.404,61.676z"/>
	<polygon fill="#231F20" points="17.504,54.166 21.826,56.333 16.328,56.514 15.3,58.562 22.664,62.256 23.562,60.463 
		19.177,58.263 24.729,58.136 25.768,56.065 18.404,52.373 	"/>
	<polygon fill="#231F20" points="28.046,39.802 32.049,44.556 26.674,41.346 24.755,43.507 28.575,48.466 23.383,45.051 
		21.963,46.648 29.122,50.996 31.025,48.854 27.168,43.846 32.596,47.086 34.459,44.988 29.299,38.392 	"/>
	<polygon fill="#231F20" points="35.051,33.906 37.03,36.481 35.127,37.944 33.148,35.369 31.359,36.744 36.379,43.276 
		38.17,41.901 36.328,39.506 38.231,38.043 40.072,40.439 41.871,39.057 36.851,32.524 	"/>
	<polygon fill="#231F20" points="44.492,35.571 43.703,34.139 46.498,32.603 45.675,31.106 42.881,32.642 42.168,31.344 
		45.266,29.642 44.442,28.146 39.367,30.936 43.336,38.155 48.433,35.354 47.609,33.857 	"/>
	<polygon fill="#231F20" points="51.377,32.317 50.801,30.786 53.785,29.664 53.184,28.065 50.2,29.188 49.68,27.802 52.987,26.559 
		52.387,24.96 46.967,26.998 49.864,34.709 55.307,32.663 54.706,31.064 	"/>
	<polygon fill="#231F20" points="58.635,29.987 57.208,23.712 55.007,24.213 56.835,32.245 61.969,31.077 61.568,29.32 	"/>
	<polygon fill="#231F20" points="68.539,25.381 65.146,25.655 64.953,25.479 64.861,24.336 65.079,24.067 66.889,23.921 
		67.171,24.162 67.227,24.84 69.475,24.659 69.362,23.254 68.114,22.193 63.639,22.555 62.545,23.84 62.768,26.602 63.862,27.543 
		67.254,27.271 67.447,27.435 67.543,28.624 67.324,28.881 65.456,29.032 65.174,28.803 65.119,28.125 62.869,28.307 62.982,29.711 
		64.23,30.772 68.766,30.406 69.859,29.12 69.633,26.312 	"/>
	<polygon fill="#231F20" points="30.605,122.839 31.85,121.652 31.867,120.547 30.805,119.433 29.707,119.406 28.463,120.592 
		28.438,121.69 29.5,122.805 	"/>
	<polygon fill="#231F20" points="35.738,131.47 39.6,126.336 41.365,127.662 42.455,126.213 37.121,122.2 36.031,123.651 
		37.785,124.972 33.926,130.106 	"/>
	<path fill="#231F20" d="M44.113,129.553l0.551-0.161l1.5,0.818l0.161,0.551l-1.969,3.604l-0.55,0.162l-1.499-0.818l-0.162-0.551
		L44.113,129.553z M40.275,134.49l3.961,2.163l1.729-0.499l2.734-5.009l-0.515-1.723l-3.961-2.163l-1.718,0.504l-2.735,5.01
		L40.275,134.49z"/>
	<polygon fill="#231F20" points="74.254,134.463 74.483,136.263 76.662,135.983 77.479,142.355 79.729,142.067 78.913,135.697 
		81.104,135.416 80.873,133.616 	"/>
	<path fill="#231F20" d="M87.66,138.629l-1.646,0.459l-0.5-0.282l-1.104-3.955l0.282-0.5l1.644-0.46l0.502,0.282l1.103,3.956
		L87.66,138.629z M87.236,131.917l-4.347,1.213l-0.879,1.56l1.534,5.497l1.559,0.879l4.348-1.213l0.89-1.562l-1.533-5.497
		L87.236,131.917z"/>
	<polygon fill="#231F20" points="95.494,131.066 94.11,131.744 93.754,132.781 94.51,134.326 95.547,134.682 96.932,134.006 
		97.299,132.963 96.543,131.418 	"/>
	<path fill="#FFFFFF" d="M54.31,117.408c-3.194,0.376-3.274-3.99,0.024-3.877c1.24,0.117,2.478-0.003,3.693-1.366
		C58.181,113.617,56.978,116.879,54.31,117.408 M45.373,89.058c0.06-0.204,3.979-4.458,0.477-5.572
		c-0.205-1.341,4.458-7.111,0.372-6.793c-1.254,0.098-11.667,1.622-12.789,1.858c0.796-3.557,8.407-4.036,9.259-4.22
		c0.563-0.085,11.484-1.611,15.799-0.885C64.795,73.934,61.293,93.516,45.373,89.058 M31.225,82.872
		c-2.707-2.866-3.174-9.187-2.393-12.188c2.19-8.833,21.339-8.678,21.492-8.835c1.91,1.91,4.722,6.978,5.024,9.749
		c-7.801,0.158-18.229,1.858-20.06,2.864C31.881,76.018,31.303,81.463,31.225,82.872 M58.587,61.276
		c-0.718,0.397-1.222,0.663-0.984,1.229c1.196,2.565,3.796-2.794,9.952-2.476S76,64.654,81.14,63.531
		c-1.485,1.911-4.14,6.899-14.646,6.899c0,0-11.254,0.126-11.145-5.625C55.506,62.437,56.576,60.914,58.587,61.276 M67.56,43.963
		c2.044,1.593,1.675,4.886,0.923,6.057c-0.453-1.682-1.455-2.313-2.561-2.744C63.063,45.96,65,42.278,67.56,43.963 M73.535,120.857
		c-2.076-1.323-2.019-4.47-1.412-5.645c0.578,1.551,1.58,2.058,2.664,2.367C77.609,118.568,76.104,122.225,73.535,120.857
		 M84.402,52.838c-0.234-1.433,0.773-4.74,3.393-5.421c3.148-0.556,3.48,3.775,0.197,3.853
		C86.756,51.225,85.533,51.415,84.402,52.838 M56.996,110.667c3.242-4.854,16.793-1.231,16.863,3.39
		c-0.848-0.545-1.482-0.917-2.855-1.438c-1.008,5.477-2.01,10.77-2.895,15.374c2.432-0.407,5.166-1.49,8.244-3.544
		c1.965-1.57,2.943,0.208,1.178,1.596c9.658,0.318,21.527-12.48,21.514-12.542c1.306-1.999,3.164-0.338,1.518,1.61
		c10.082-2.76,10.15-26.881,10.401-29.718c-0.214-3.077,1.909-3.396,2.228,0.106c2.653-7.43-5.943-22.501-9.34-27.384
		c-1.273-2.547,0.654-2.575,1.672-1.306c-0.539-4.285-9.47-14.977-21.062-18.175c-0.31,1.836-0.546,3.199-0.657,3.767
		c2.708,0.716,4.493,1.247,7.146,2.008c0.074,0.578-0.078,1.165-0.278,1.676c-2.681-0.274-4.558-0.432-7.251-0.759
		c-0.191,1.171-1.428,7.657-1.742,9.304c1.395,0.066,2.689,0.033,3.812-0.122c-2.26,3.895-16.717,2.388-17.99-2.866
		c0.968,0.355,2.012,0.696,3.1,1.013c0.615-3.516,1.46-8.155,1.65-9.275c-2.299-0.578-3.54-0.98-4.733-1.451
		c-0.114-0.37-0.012-1.332,0.19-1.703c0.643-0.008,2.336-0.038,5.41,0.328c0.152-0.853,0.354-2.005,0.588-3.364
		c-5.444-0.231-9.567,0.834-16.235,4.901c-1.209,0.699-1.847-0.653-0.892-1.848c-8.198,3.662-10.094,14.345-11.633,15.855
		c-1.246,0.798-2.01,1.282-3.265,1.755C39.419,58.885,31.048,60.026,28,67.439c-3.562,8.646-0.152,16.682,4.154,17.827
		c0.143-1.901,0.461-4.09,0.864-5.397c2.296-0.371,9.122-1.366,12.455-1.927c3.09-0.213-5.796,5.223-4.134,8.938
		c0.965-1.016,3.031-0.805,1.379,1.486c-1.828,3.298-6.667,9.93-4.775,17.618c0.125-1.934,2.334-2.653,2.229-0.424
		c-0.026,5.624,4.988,15.07,10.826,17.618c-1.486-2.229,0.425-3.821,2.44-1.698c1.142,1.172,2.505,2.564,4.147,3.776
		c0.756-4.582,1.605-9.639,2.537-14.991C59.152,110.267,58.176,110.396,56.996,110.667"/>
	<path fill="#FFFFFF" d="M75.502,53.846l0.702-3.688c0.376-2.827-0.743-5.449-2.388-5.729c-0.296,1.547-1.213,6.615-1.582,8.676
		C73.307,53.382,74.403,53.632,75.502,53.846"/>
	<path fill="#231F20" d="M63.803,62.139c0,0,1.91,1.27,3.031,2.255c1.076-0.821,3.055-2.024,3.055-2.024s-1.211,1.824-2.186,2.954
		c0.885,1.169,1.956,3.134,1.956,3.134s-1.806-1.368-2.856-2.262c-1.152,0.897-3.231,2.031-3.231,2.031s1.44-1.9,2.33-2.937
		C65.081,64.243,63.803,62.139,63.803,62.139 M66.493,70.431c10.507,0,13.161-4.988,14.647-6.899
		c-5.141,1.123-7.43-3.184-13.586-3.502c-6.155-0.318-8.756,5.041-9.952,2.477c-0.236-0.566,0.268-0.831,0.983-1.229
		c-2.01-0.362-3.08,1.16-3.236,3.529C55.24,70.556,66.493,70.431,66.493,70.431"/>
	<path fill="#231F20" d="M35.289,74.464c1.83-1.007,12.26-2.706,20.06-2.866c-0.304-2.771-3.115-7.838-5.024-9.749
		c-0.154,0.159-19.302,0.003-21.492,8.836c-0.781,3-0.314,9.322,2.393,12.188C31.303,81.463,31.881,76.018,35.289,74.464"/>
	<path fill="#231F20" d="M58.49,73.445c-4.314-0.726-15.236,0.801-15.799,0.887c-0.852,0.182-8.463,0.662-9.259,4.218
		c1.122-0.236,11.535-1.76,12.789-1.857c4.086-0.318-0.577,5.451-0.372,6.792c3.503,1.115-0.417,5.369-0.477,5.572
		C61.293,93.515,64.795,73.933,58.49,73.445"/>
	<path fill="#FFFFFF" d="M81.246,47.985c-0.943-0.027-2.248-0.09-2.839,0.438c-0.508,0.452-1.173,3.337-1.634,5.654
		c1.089,0.186,2.167,0.331,3.21,0.433C80.477,51.923,81.205,48.146,81.246,47.985"/>
	<path fill="#FFFFFF" d="M66.804,66.195c1.05,0.893,2.854,2.262,2.854,2.262s-1.07-1.965-1.955-3.134
		c0.976-1.13,2.187-2.953,2.187-2.953s-1.979,1.202-3.056,2.023c-1.121-0.985-3.031-2.254-3.031-2.254s1.277,2.104,2.1,3.151
		c-0.891,1.035-2.33,2.936-2.33,2.936S65.65,67.093,66.804,66.195"/>
	<path fill="#231F20" d="M87.992,51.269c3.283-0.076,2.951-4.406-0.197-3.851c-2.619,0.679-3.627,3.988-3.393,5.421
		C85.533,51.416,86.756,51.224,87.992,51.269"/>
	<path fill="#231F20" d="M65.922,47.275c1.105,0.432,2.107,1.062,2.56,2.744c0.752-1.172,1.123-4.465-0.922-6.057
		C65,42.278,63.063,45.96,65.922,47.275"/>
	<path fill="#231F20" d="M58.028,112.166c-1.216,1.362-2.454,1.482-3.694,1.365c-3.299-0.113-3.218,4.253-0.025,3.877
		C56.977,116.88,58.182,113.616,58.028,112.166"/>
	<path fill="#231F20" d="M74.788,117.58c-1.085-0.311-2.087-0.817-2.666-2.367c-0.606,1.175-0.664,4.322,1.412,5.646
		C76.104,122.224,77.608,118.568,74.788,117.58"/>
	<path fill="#FFFFFF" d="M63.492,143.241c0.215-1,3.034-15.904,5.912-31.192c-1.062-0.357-1.762-0.595-2.938-0.862
		c-3.416,18.307-6.612,34.38-7.143,34.195c-0.529-0.183,5.471-34.594,5.471-34.594c-1.043-0.206-1.832-0.259-2.862-0.348
		c-1.176,6.724-5.463,31.688-5.463,31.688c-0.685,4.796-1.371,10.534,0.599,14.988C57.068,157.116,61.095,154.805,63.492,143.241"/>
</g>
</svg>
