<?xml version="1.0" encoding="utf-8"?>
<!-- Generator: Adobe Illustrator 16.0.0, SVG Export Plug-In . SVG Version: 6.00 Build 0)  -->
<!DOCTYPE svg PUBLIC "-//W3C//DTD SVG 1.1//EN" "http://www.w3.org/Graphics/SVG/1.1/DTD/svg11.dtd">
<svg version="1.1" id="Layer_1" xmlns="http://www.w3.org/2000/svg" xmlns:xlink="http://www.w3.org/1999/xlink" x="0px" y="0px"
	 width="15.482px" height="20px" viewBox="0 0 15.482 20" enable-background="new 0 0 15.482 20" xml:space="preserve">
<path fill="#231F20" d="M8.209,0C2.752,0,0,3.915,0,7.177c0,1.976,0.747,3.733,2.352,4.388c0.264,0.109,0.498,0.003,0.576-0.287
	c0.053-0.202,0.181-0.711,0.233-0.922c0.078-0.288,0.046-0.39-0.165-0.641C2.534,9.17,2.239,8.465,2.239,7.462
	c0-2.903,2.17-5.501,5.653-5.501c3.085,0,4.781,1.885,4.781,4.401c0,3.313-1.467,6.109-3.643,6.109
	c-1.201,0-2.102-0.995-1.812-2.214C7.563,8.802,8.233,7.23,8.233,6.181c0-0.939-0.505-1.723-1.552-1.723
	c-1.228,0-2.215,1.27-2.215,2.972c0,1.086,0.367,1.818,0.367,1.818s-1.258,5.327-1.479,6.261c-0.438,1.858-0.066,4.135-0.033,4.363
	c0.02,0.138,0.193,0.171,0.273,0.066c0.111-0.147,1.576-1.952,2.072-3.759c0.143-0.511,0.809-3.158,0.809-3.158
	c0.4,0.763,1.566,1.432,2.808,1.432c3.69,0,6.198-3.366,6.198-7.872C15.482,3.174,12.594,0,8.209,0"/>
</svg>
