<?xml version="1.0" encoding="utf-8"?>
<!-- Generator: Adobe Illustrator 16.0.0, SVG Export Plug-In . SVG Version: 6.00 Build 0)  -->
<!DOCTYPE svg PUBLIC "-//W3C//DTD SVG 1.1//EN" "http://www.w3.org/Graphics/SVG/1.1/DTD/svg11.dtd">
<svg version="1.1" id="Layer_1" xmlns="http://www.w3.org/2000/svg" xmlns:xlink="http://www.w3.org/1999/xlink" x="0px" y="0px"
	 width="20px" height="20px" viewBox="0 0 20 20" enable-background="new 0 0 20 20" xml:space="preserve">
<path d="M8.182,1.818c-0.862,0-1.687,0.168-2.472,0.504C4.924,2.659,4.247,3.111,3.679,3.679
	C3.11,4.247,2.659,4.924,2.323,5.71C1.985,6.496,1.817,7.32,1.817,8.182c0,0.862,0.168,1.686,0.506,2.472
	c0.336,0.786,0.787,1.463,1.355,2.031s1.245,1.021,2.031,1.356c0.785,0.336,1.609,0.504,2.472,0.504s1.687-0.168,2.472-0.504
	c0.787-0.336,1.463-0.788,2.031-1.356s1.02-1.245,1.356-2.031s0.505-1.609,0.505-2.472c0-0.861-0.168-1.686-0.505-2.472
	s-0.788-1.463-1.356-2.031c-0.568-0.567-1.244-1.02-2.031-1.356C9.868,1.986,9.044,1.818,8.182,1.818 M8.182,0
	c1.108,0,2.167,0.217,3.179,0.65c1.01,0.433,1.881,1.014,2.609,1.742c0.73,0.73,1.311,1.601,1.744,2.611
	c0.434,1.01,0.65,2.07,0.65,3.178c0,0.952-0.155,1.863-0.465,2.734c-0.312,0.871-0.752,1.662-1.326,2.372l5.164,5.157
	C19.913,18.62,20,18.835,20,19.091c0,0.26-0.087,0.478-0.259,0.65C19.567,19.914,19.352,20,19.091,20
	c-0.256,0-0.471-0.088-0.646-0.263l-5.156-5.163c-0.711,0.573-1.5,1.014-2.372,1.324c-0.871,0.311-1.782,0.466-2.734,0.466
	c-1.108,0-2.167-0.217-3.178-0.65c-1.011-0.433-1.882-1.015-2.61-1.744c-0.73-0.729-1.311-1.599-1.744-2.609
	C0.217,10.349,0,9.29,0,8.182c0-1.107,0.217-2.168,0.649-3.178c0.434-1.011,1.014-1.881,1.744-2.611
	c0.729-0.729,1.6-1.31,2.61-1.742C6.015,0.217,7.073,0,8.182,0"/>
</svg>
