<?xml version="1.0" encoding="utf-8"?>
<!-- Generator: Adobe Illustrator 16.0.0, SVG Export Plug-In . SVG Version: 6.00 Build 0)  -->
<!DOCTYPE svg PUBLIC "-//W3C//DTD SVG 1.1//EN" "http://www.w3.org/Graphics/SVG/1.1/DTD/svg11.dtd">
<svg version="1.1" id="Layer_1" xmlns="http://www.w3.org/2000/svg" xmlns:xlink="http://www.w3.org/1999/xlink" x="0px" y="0px"
	 width="47px" height="94.21px" viewBox="0 0 47 94.21" enable-background="new 0 0 47 94.21" xml:space="preserve">
<path fill="#231F20" d="M46.754,47.677c-1.599-0.223-2.406-1.035-2.485-1.797h0.002c-0.033-1.771,1.659-1.996,2.33-2.098
	c0.391-0.082,0.276-1.637-0.104-1.66c-1.614-0.033-2.511-0.744-2.681-1.49h0.002c-0.244-1.754,1.41-2.178,2.063-2.359
	c0.379-0.125,0.082-1.656-0.299-1.637c-1.606,0.16-2.581-0.439-2.839-1.16h0.003c-0.449-1.715,1.142-2.33,1.771-2.588
	c0.36-0.17-0.115-1.656-0.492-1.59c-1.576,0.348-2.615-0.131-2.955-0.816l0.002-0.002c-0.649-1.648,0.859-2.447,1.451-2.777
	c0.338-0.211-0.31-1.629-0.676-1.52c-1.523,0.531-2.613,0.176-3.031-0.461V25.72c-0.838-1.561,0.565-2.535,1.113-2.932
	c0.311-0.25-0.5-1.58-0.851-1.43c-1.45,0.709-2.573,0.486-3.065-0.098l0.002-0.002c-1.018-1.449,0.26-2.582,0.758-3.043
	c0.279-0.285-0.686-1.51-1.015-1.318c-1.356,0.875-2.497,0.789-3.054,0.266v-0.002c-1.182-1.318-0.049-2.596,0.392-3.109
	c0.244-0.316-0.858-1.42-1.163-1.189c-1.242,1.029-2.386,1.078-3.002,0.625l0.002-0.002c-1.33-1.17-0.355-2.572,0.02-3.137
	c0.205-0.342-1.02-1.307-1.295-1.043c-1.112,1.172-2.242,1.355-2.907,0.979l0.002-0.004c-1.46-1.004-0.658-2.512-0.353-3.115
	c0.164-0.363-1.168-1.176-1.408-0.881c-0.967,1.293-2.066,1.607-2.771,1.312V7.595c-1.568-0.824-0.949-2.416-0.717-3.053
	c0.119-0.381-1.3-1.031-1.505-0.709c-0.804,1.398-1.86,1.842-2.595,1.633V5.464c-1.654-0.633-1.229-2.287-1.074-2.947
	c0.072-0.391-1.412-0.869-1.578-0.523c-0.635,1.482-1.628,2.047-2.385,1.928l0.002-0.002C8.649,3.483,8.876,1.794,8.953,1.12
	c0.024-0.398-1.507-0.697-1.63-0.336C6.87,2.333,5.948,3.013,5.185,2.981V2.979C3.427,2.753,3.452,1.046,3.448,0.368
	C3.426-0.03,1.871-0.146,1.791,0.228C1.532,1.769,0.741,2.546,0,2.647v3.758c12.341,0.047,24.512,5.678,32.473,16.322
	c13.466,18,9.788,43.51-8.215,56.975C16.97,85.153,8.452,87.792,0,87.812v6.396c0.425,0.02,0.876-0.066,0.905-0.268
	c0.168-1.605,0.951-2.439,1.709-2.547v0.002c1.769-0.094,2.052,1.588,2.179,2.256c0.094,0.387,1.644,0.219,1.655-0.162
	c-0.024-1.615,0.654-2.535,1.395-2.732v0.002c1.745-0.303,2.227,1.334,2.432,1.982c0.139,0.373,1.656,0.023,1.623-0.355
	c-0.215-1.602,0.352-2.598,1.062-2.879v0.002c1.697-0.508,2.368,1.062,2.648,1.68c0.182,0.354,1.648-0.172,1.57-0.545
	c-0.402-1.564,0.04-2.621,0.713-2.984l0.002,0.002c1.625-0.705,2.477,0.773,2.827,1.354c0.224,0.33,1.617-0.365,1.495-0.727
	c-0.585-1.506-0.27-2.607,0.355-3.047v0.002c1.531-0.893,2.552,0.475,2.97,1.01c0.26,0.301,1.562-0.555,1.397-0.9
	c-0.759-1.426-0.576-2.557-0.008-3.066h0.002c1.413-1.066,2.59,0.17,3.066,0.65c0.295,0.27,1.484-0.734,1.283-1.057
	c-0.924-1.326-0.877-2.471-0.373-3.045h0.003c1.276-1.227,2.591-0.137,3.122,0.285c0.324,0.23,1.388-0.908,1.148-1.205
	c-1.023-1.15-1.152-2.242-0.785-2.887c1.107-1.139,2.445-0.264,2.998,0.082c0.348,0.195,1.277-1.057,1.006-1.324
	c-1.201-1.078-1.416-2.203-1.058-2.879l0.002,0.002c0.964-1.488,2.492-0.729,3.104-0.439c0.369,0.152,1.145-1.201,0.844-1.432
	c-1.321-0.932-1.667-2.021-1.391-2.734h0.002c0.781-1.59,2.388-1.016,3.031-0.801c0.383,0.105,0.993-1.328,0.666-1.525
	c-1.42-0.766-1.894-1.807-1.705-2.549h0.004c0.586-1.672,2.25-1.291,2.914-1.154c0.395,0.061,0.83-1.438,0.481-1.592
	c-1.501-0.594-2.094-1.574-1.994-2.33h0.002c0.386-1.729,2.083-1.551,2.759-1.494c0.398,0.016,0.652-1.523,0.289-1.637
	c-1.562-0.41-2.266-1.312-2.257-2.076h0.003c0.178-1.764,1.885-1.787,2.561-1.809C47.058,49.304,47.129,47.745,46.754,47.677"/>
</svg>
