<?xml version="1.0" encoding="utf-8"?>
<!-- Generator: Adobe Illustrator 16.0.0, SVG Export Plug-In . SVG Version: 6.00 Build 0)  -->
<!DOCTYPE svg PUBLIC "-//W3C//DTD SVG 1.1//EN" "http://www.w3.org/Graphics/SVG/1.1/DTD/svg11.dtd">
<svg version="1.1" id="Layer_1" xmlns="http://www.w3.org/2000/svg" xmlns:xlink="http://www.w3.org/1999/xlink" x="0px" y="0px"
	 width="20px" height="16.253px" viewBox="0 0 20 16.253" enable-background="new 0 0 20 16.253" xml:space="preserve">
<path d="M20,1.924c-0.735,0.326-1.526,0.547-2.356,0.646c0.847-0.508,1.498-1.312,1.805-2.27
	c-0.793,0.47-1.672,0.812-2.606,0.996C16.093,0.498,15.026,0,13.847,0c-2.266,0-4.103,1.837-4.103,4.103
	c0,0.322,0.036,0.635,0.106,0.936C6.44,4.866,3.416,3.233,1.392,0.751C1.039,1.356,0.837,2.062,0.837,2.813
	c0,1.423,0.725,2.679,1.825,3.415C1.99,6.208,1.356,6.022,0.804,5.716c0,0.017,0,0.034,0,0.052c0,1.988,1.414,3.646,3.291,4.023
	c-0.344,0.094-0.707,0.144-1.08,0.144c-0.266,0-0.522-0.026-0.772-0.074c0.522,1.63,2.036,2.817,3.833,2.851
	c-1.404,1.1-3.174,1.756-5.096,1.756c-0.332,0-0.658-0.02-0.979-0.058c1.815,1.164,3.974,1.844,6.29,1.844
	c7.547,0,11.674-6.252,11.674-11.674c0-0.179-0.004-0.355-0.012-0.531C18.754,3.469,19.45,2.747,20,1.924"/>
</svg>
