<?xml version="1.0" encoding="utf-8"?>
<!-- Generator: Adobe Illustrator 16.0.0, SVG Export Plug-In . SVG Version: 6.00 Build 0)  -->
<!DOCTYPE svg PUBLIC "-//W3C//DTD SVG 1.1//EN" "http://www.w3.org/Graphics/SVG/1.1/DTD/svg11.dtd">
<svg version="1.1" id="Layer_1" xmlns="http://www.w3.org/2000/svg" xmlns:xlink="http://www.w3.org/1999/xlink" x="0px" y="0px"
	 width="30.432px" height="24.5px" viewBox="0 0 30.432 24.5" enable-background="new 0 0 30.432 24.5" xml:space="preserve">
<path  d="M9.771,24.5c-3.346,0-6.604-0.942-9.423-2.726c-0.296-0.187-0.423-0.554-0.306-0.884
	c0.116-0.329,0.438-0.532,0.794-0.495c2.281,0.268,4.627-0.173,6.622-1.249c-1.964-0.651-3.55-2.19-4.207-4.211
	c-0.082-0.252-0.025-0.529,0.15-0.728c0.067-0.077,0.148-0.138,0.238-0.181c-1.529-1.214-2.488-3.077-2.488-5.116
	c0-0.265,0.14-0.548,0.368-0.683c0.194-0.116,0.429-0.164,0.641-0.094C1.54,7.125,1.199,5.953,1.199,4.731
	c0-1.16,0.312-2.301,0.902-3.3c0.124-0.21,0.343-0.347,0.587-0.366c0.235-0.022,0.481,0.082,0.637,0.27
	c2.661,3.224,6.51,5.277,10.669,5.724c-0.013-0.167-0.02-0.334-0.02-0.502C13.975,2.941,16.951,0,20.609,0
	c1.686,0,3.317,0.642,4.541,1.774c1.524-0.283,4.408-0.764,4.408-0.764c0.278-0.045,0.562,0.069,0.729,0.299s0.19,0.535,0.059,0.787
	c-0.323,0.622-1.879,3.55-3.086,4.717c0.003,0.138,0.005,0.277,0.005,0.417C27.266,15.719,20.722,24.5,9.771,24.5z M3.819,21.866
	C5.702,22.612,7.719,23,9.771,23c10.012,0,15.994-8.019,15.994-15.771c0-0.241-0.006-0.481-0.016-0.718
	c-0.012-0.254,0.107-0.496,0.314-0.644c0.532-0.379,1.459-1.811,2.213-3.12c-1.088,0.186-2.483,0.428-3.229,0.573
	c-0.251,0.049-0.51-0.034-0.688-0.22C23.394,2.083,22.026,1.5,20.609,1.5c-2.831,0-5.135,2.269-5.135,5.057
	c0,0.389,0.045,0.777,0.133,1.152c0.054,0.229-0.004,0.471-0.154,0.652c-0.15,0.182-0.383,0.276-0.613,0.269
	C10.307,8.404,6.036,6.432,2.949,3.172C2.784,3.674,2.699,4.2,2.699,4.731c0,1.693,0.853,3.266,2.282,4.207
	c0.279,0.185,0.403,0.533,0.302,0.853c-0.102,0.32-0.404,0.545-0.737,0.523c-0.596-0.018-1.188-0.117-1.758-0.292
	c0.451,1.933,1.987,3.453,3.98,3.847c0.342,0.068,0.592,0.362,0.604,0.71c0.012,0.348-0.218,0.659-0.554,0.75
	c-0.53,0.143-1.081,0.22-1.639,0.229c0.899,1.458,2.508,2.396,4.295,2.429c0.318,0.006,0.598,0.212,0.698,0.514
	s-0.001,0.634-0.253,0.829C8.127,20.717,6.043,21.579,3.819,21.866z"/>
</svg>
